<svg width="64" height="20" viewBox="0 0 64 20" fill="none" xmlns="http://www.w3.org/2000/svg">
    <path d="M59.1528 19.3306C58.8361 19.3306 58.5195 19.2986 58.2095 19.2352C56.8615 18.9592 55.6861 18.1206 54.9861 16.9332L54.9688 16.9012C54.6201 16.2039 54.8495 15.3832 55.5021 14.9919C55.7181 14.8625 55.9661 14.7939 56.2195 14.7939C56.7295 14.7939 57.2028 15.0719 57.4548 15.5192C57.4695 15.5445 57.4855 15.5725 57.5028 15.5985L57.6528 15.8032L57.8548 16.0072C58.1061 16.2279 58.4288 16.3852 58.7755 16.4525C59.3301 16.5585 59.9235 16.4245 60.3628 16.0899C60.8348 15.7465 61.1168 15.2372 61.1601 14.6539C61.2048 14.0785 60.9981 13.5032 60.6081 13.1125C60.6081 13.1125 56.3428 8.68253 56.1515 8.4772C56.0461 8.36386 55.8495 8.16719 55.6375 7.86653C55.0355 7.01386 54.8475 6.00786 54.9401 5.01252C54.9868 4.32852 55.1941 3.64452 55.5408 3.03985C55.5408 3.03985 55.7361 2.70918 55.7935 2.62518C56.0195 2.29585 56.4641 1.86985 56.7688 1.63118C57.0608 1.40251 57.4521 1.20518 57.5875 1.13985C58.4275 0.733178 59.4975 0.544511 60.5575 0.766511C61.8715 1.04851 63.0061 1.86851 63.6715 3.01785C63.8635 3.33785 63.9161 3.71985 63.8188 4.08985C63.7201 4.46052 63.4808 4.76985 63.1448 4.96052C62.9395 5.08252 62.6988 5.14852 62.4535 5.14852C61.9461 5.14852 61.4641 4.86519 61.2261 4.42652C60.9541 3.96852 60.5108 3.65452 59.9848 3.54918C59.4695 3.44518 58.9001 3.57118 58.4795 3.88785C58.0701 4.19519 57.8101 4.67919 57.7675 5.21586C57.7261 5.75319 57.9068 6.26452 58.2755 6.65586L62.6362 11.1525C63.5882 12.1352 64.0808 13.4885 63.9882 14.8679C63.8642 16.2659 63.1688 17.5332 62.0808 18.3486C61.2355 18.9832 60.1948 19.3326 59.1521 19.3326M45.3521 19.3306C47.9381 19.3306 50.0415 17.2265 50.0415 14.6399V5.36186C50.0421 2.77585 47.9388 0.671844 45.3528 0.671844C42.7668 0.671844 40.6628 2.77585 40.6628 5.36119V14.6379C40.6628 17.2239 42.7668 19.3286 45.3528 19.3286M45.3528 3.50385C46.3601 3.50385 47.2108 4.35452 47.2108 5.36186V14.6385C47.2108 15.6632 46.3768 16.4965 45.3528 16.4965C44.3101 16.4965 43.4941 15.6805 43.4941 14.6385V5.36186C43.4941 4.33719 44.3281 3.50385 45.3528 3.50385ZM24.2901 4.36385V17.9119C24.2901 18.7052 24.9121 19.3272 25.7061 19.3272C26.5001 19.3272 27.1221 18.7052 27.1221 17.9119V10.2392L24.2907 4.36319L24.2901 4.36385ZM31.9707 9.7652V2.08718C31.9707 1.29318 32.5921 0.671178 33.3867 0.671178C34.1814 0.671178 34.8027 1.29318 34.8027 2.08718V15.6412L31.9707 9.76453V9.7652ZM34.7787 17.6072V17.9099C34.7814 18.4359 34.4854 18.9352 33.9721 19.1832C33.2667 19.5239 32.4461 19.2479 32.0941 18.5519L24.3074 2.40985V2.08651C24.3047 1.56051 24.6007 1.06185 25.1147 0.813845C25.8301 0.469177 26.6601 0.759178 27.0047 1.47385L34.7781 17.6059L34.7787 17.6072ZM13.694 19.3292C14.9447 19.3292 16.122 18.8406 17.0087 17.9539C17.8954 17.0665 18.384 15.8899 18.384 14.6392V5.36186C18.384 4.11119 17.8954 2.93385 17.0087 2.04718C16.1214 1.15985 14.9447 0.671844 13.6934 0.671844C12.442 0.671844 11.2654 1.15985 10.3787 2.04718C9.49202 2.93385 9.00336 4.11119 9.00336 5.36186V14.6385C9.00336 15.8892 9.49202 17.0659 10.3787 17.9532C11.2654 18.8399 12.4427 19.3286 13.6934 19.3286M13.6934 3.50385C14.1794 3.50385 14.6434 3.69985 14.9994 4.05585C15.3554 4.41185 15.5514 4.87585 15.5514 5.36186V14.6385C15.5514 15.1339 15.358 15.6005 15.006 15.9519C14.6547 16.3032 14.1887 16.4965 13.6927 16.4965C13.188 16.4965 12.7187 16.3059 12.372 15.9592C12.0254 15.6125 11.8347 15.1432 11.8347 14.6385V5.36186C11.8347 4.86652 12.028 4.39985 12.38 4.04852C12.7314 3.69718 13.1974 3.50385 13.6934 3.50385ZM0 17.7626C0 18.6152 0.691335 19.3066 1.544 19.3066C2.39667 19.3066 3.08801 18.6152 3.08801 17.7626V2.21318C3.08867 1.36051 2.39734 0.669178 1.544 0.669178C0.690668 0.669178 0 1.36051 0 2.21318V17.7626Z" fill="#003D8F"/>
    </svg>
    