<?xml version="1.0" encoding="UTF-8"?>
<svg width="653px" height="860px" viewBox="0 0 653 860" version="1.1" xmlns="http://www.w3.org/2000/svg">
    <title>Frame 110</title>
    <g id="Home" stroke="none" stroke-width="1" fill="none" fill-rule="evenodd" opacity="0.400000006">
        <g id="01-–-XL-_-Core-Home" transform="translate(-1148.000000, -5293.000000)">
            <g id="Frame-45" transform="translate(0.000000, 5293.000000)">
                <g id="Frame-110" transform="translate(1148.000000, 0.000000)">
                    <path d="M0,0 L561,0 L561,558 L0,558 L0,0 Z" id="Frame-110-(Background)"></path>
                    <path d="M192.501598,119.202199 C243.587937,119.202199 285.001598,160.61586 285.001598,211.702199 L285.001598,525.6545 C285.001598,576.740839 243.587937,618.1545 192.501598,618.1545 C141.415258,618.1545 100.001598,576.740839 100.001598,525.6545 L100.001598,211.702199 C100.001598,160.61586 141.415258,119.202199 192.501598,119.202199 Z" id="Rectangle-40" fill="#1678C9" transform="translate(192.501598, 368.678349) rotate(-26.000000) translate(-192.501598, -368.678349) "></path>
                    <path d="M114.953653,327.732571 C122.616604,327.732571 128.828653,333.94462 128.828653,341.607571 L128.828653,676.485837 C128.828653,684.148787 122.616604,690.360837 114.953653,690.360837 C107.290702,690.360837 101.078653,684.148787 101.078653,676.485837 L101.078653,341.607571 C101.078653,333.94462 107.290702,327.732571 114.953653,327.732571 Z" id="Rectangle-43" fill="#003D8F" transform="translate(114.953653, 509.046704) rotate(-26.000000) translate(-114.953653, -509.046704) "></path>
                    <path d="M496.770833,139.88505 C512.096735,139.88505 524.520833,152.309148 524.520833,167.63505 L524.520833,572.152994 C524.520833,587.478896 512.096735,599.902994 496.770833,599.902994 C481.444931,599.902994 469.020833,587.478896 469.020833,572.152994 L469.020833,167.63505 C469.020833,152.309148 481.444931,139.88505 496.770833,139.88505 Z" id="Rectangle-42" fill="#003D8F" opacity="0.600000024" transform="translate(496.770833, 369.894022) rotate(-26.000000) translate(-496.770833, -369.894022) "></path>
                    <path d="M470.350245,229.773283 C495.893414,229.773283 516.600245,250.480113 516.600245,276.023283 L516.600245,825.814726 C516.600245,851.357895 495.893414,872.064726 470.350245,872.064726 C444.807075,872.064726 424.100245,851.357895 424.100245,825.814726 L424.100245,276.023283 C424.100245,250.480113 444.807075,229.773283 470.350245,229.773283 Z" id="Rectangle-41" fill="#095BB1" transform="translate(470.350245, 550.919004) rotate(-26.000000) translate(-470.350245, -550.919004) "></path>
                </g>
            </g>
        </g>
    </g>
</svg>