<?xml version="1.0" encoding="UTF-8"?><svg id="ICON" xmlns="http://www.w3.org/2000/svg" viewBox="0 0 24 24"><g id="ic-s24-individual-social-media-tiktok"><path id="content" d="m20.031,7.306c-.884,0-1.707-.257-2.398-.696,0,0,0,0,0-.001-.992-.632-1.708-1.644-1.932-2.823h0c-.048-.255-.075-.517-.075-.785h-3.166l-.005,12.402c-.053,1.389-1.223,2.503-2.657,2.503-.446,0-.865-.109-1.235-.299h0c-.847-.436-1.427-1.304-1.427-2.303,0-1.434,1.194-2.601,2.662-2.601.274,0,.537.044.785.12v-3.16c-.257-.034-.519-.056-.785-.056-3.214,0-5.828,2.555-5.828,5.696,0,1.926.984,3.631,2.486,4.663,0,0,.001.001.002.002.947.65,2.098,1.032,3.34,1.032,3.214,0,5.828-2.555,5.828-5.696v-6.289c1.242.871,2.763,1.385,4.405,1.385v-3.094Z" style="fill:#001b41; fill-rule:evenodd;"/></g></svg>