<svg id="icon" xmlns="http://www.w3.org/2000/svg" viewBox="0 0 48 48"><g id="harvey-ball-0-out-of-4-text"><path d="M24,45.5A21.5,21.5,0,1,1,45.5,24,21.525,21.525,0,0,1,24,45.5Zm0-42A20.5,20.5,0,1,0,44.5,24,20.523,20.523,0,0,0,24,3.5Z" style="fill:#b3bbc6"/><path d="M21.2,24.221a6.252,6.252,0,0,1-.7,3.316,2.366,2.366,0,0,1-2.142,1.1,2.345,2.345,0,0,1-2.1-1.122,6.127,6.127,0,0,1-.721-3.29,6.266,6.266,0,0,1,.7-3.323,2.357,2.357,0,0,1,2.127-1.084,2.36,2.36,0,0,1,2.119,1.131A6.112,6.112,0,0,1,21.2,24.221Zm-4.681,0a6.27,6.27,0,0,0,.439,2.721,1.579,1.579,0,0,0,2.81-.011,6.328,6.328,0,0,0,.436-2.71,6.279,6.279,0,0,0-.436-2.7,1.584,1.584,0,0,0-2.81-.012A6.233,6.233,0,0,0,16.518,24.221Z" style="fill:#223857"/><path d="M26.08,19.949l-3.193,8.567h-.973l3.193-8.567Z" style="fill:#223857"/><path d="M32.824,26.547H31.553v1.969h-.932V26.547H26.455V25.7L30.521,19.9h1.032v5.76h1.271Zm-2.2-.885V22.814q0-.837.059-1.892h-.047a8.82,8.82,0,0,1-.528.932l-2.677,3.808Z" style="fill:#223857"/></g></svg>