<svg id="icon" xmlns="http://www.w3.org/2000/svg" viewBox="0 0 48 48"><g id="harvey-ball-1-out-of-4-text"><path d="M24,45.5A21.5,21.5,0,1,1,45.5,24,21.525,21.525,0,0,1,24,45.5Zm0-42A20.5,20.5,0,1,0,44.5,24,20.523,20.523,0,0,0,24,3.5Z" style="fill:#b3bbc6"/><path d="M45,27a3,3,0,0,1-3-3A18.021,18.021,0,0,0,24,6a3,3,0,0,1,0-6A24.028,24.028,0,0,1,48,24,3,3,0,0,1,45,27Z" style="fill:#1678c9"/><path d="M19.125,28.516h-.949V22.41q0-.762.047-1.441-.123.123-.276.258t-1.394,1.142l-.516-.668,2.268-1.752h.82Z" style="fill:#223857"/><path d="M26.08,19.949l-3.193,8.567h-.973l3.193-8.567Z" style="fill:#223857"/><path d="M32.824,26.547H31.553v1.969h-.932V26.547H26.455V25.7L30.521,19.9h1.032v5.76h1.271Zm-2.2-.885V22.814q0-.837.059-1.892h-.047a8.82,8.82,0,0,1-.528.932l-2.677,3.808Z" style="fill:#223857"/></g></svg>