<svg id="icon" xmlns="http://www.w3.org/2000/svg" viewBox="0 0 48 48"><g id="harvey-ball-2-out-of-4-text"><path d="M24,45.5A21.5,21.5,0,1,1,45.5,24,21.525,21.525,0,0,1,24,45.5Zm0-42A20.5,20.5,0,1,0,44.5,24,20.523,20.523,0,0,0,24,3.5Z" style="fill:#b3bbc6"/><path d="M24,48a3,3,0,0,1,0-6A18,18,0,0,0,24,6a3,3,0,0,1,0-6,24,24,0,0,1,0,48Z" style="fill:#1678c9"/><path d="M21.152,28.516H15.521v-.838l2.256-2.268a16.556,16.556,0,0,0,1.36-1.488,3.818,3.818,0,0,0,.492-.867,2.5,2.5,0,0,0,.164-.909,1.438,1.438,0,0,0-.416-1.086,1.591,1.591,0,0,0-1.154-.4,2.9,2.9,0,0,0-1.011.176,4.028,4.028,0,0,0-1.064.639l-.515-.662a3.945,3.945,0,0,1,2.578-.985,2.726,2.726,0,0,1,1.893.618,2.126,2.126,0,0,1,.685,1.661,3.206,3.206,0,0,1-.457,1.612,10.233,10.233,0,0,1-1.711,2.015l-1.875,1.834v.047h4.406Z" style="fill:#223857"/><path d="M26.08,19.949l-3.193,8.567h-.973l3.193-8.567Z" style="fill:#223857"/><path d="M32.824,26.547H31.553v1.969h-.932V26.547H26.455V25.7L30.521,19.9h1.032v5.76h1.271Zm-2.2-.885V22.814q0-.837.059-1.892h-.047a8.82,8.82,0,0,1-.528.932l-2.677,3.808Z" style="fill:#223857"/></g></svg>