<svg id="icon" xmlns="http://www.w3.org/2000/svg" viewBox="0 0 48 48"><g id="harvey-ball-3-out-of-4-text"><path d="M24,45.5A21.5,21.5,0,1,1,45.5,24,21.525,21.525,0,0,1,24,45.5Zm0-42A20.5,20.5,0,1,0,44.5,24,20.523,20.523,0,0,0,24,3.5Z" style="fill:#b3bbc6"/><path d="M24,48A24.027,24.027,0,0,1,0,24a3,3,0,0,1,6,0A18,18,0,1,0,24,6a3,3,0,0,1,0-6,24,24,0,0,1,0,48Z" style="fill:#1678c9"/><path d="M20.83,21.965a1.953,1.953,0,0,1-.46,1.342,2.306,2.306,0,0,1-1.3.7v.047a2.45,2.45,0,0,1,1.53.656,1.933,1.933,0,0,1,.5,1.383,2.244,2.244,0,0,1-.85,1.884,3.866,3.866,0,0,1-2.414.659,6.935,6.935,0,0,1-1.245-.1,4.25,4.25,0,0,1-1.1-.36v-.926a5.624,5.624,0,0,0,2.379.563q2.222,0,2.221-1.741,0-1.558-2.449-1.558h-.844V23.67h.855a2.581,2.581,0,0,0,1.588-.442A1.452,1.452,0,0,0,19.822,22a1.209,1.209,0,0,0-.43-.984,1.773,1.773,0,0,0-1.169-.358,3.6,3.6,0,0,0-1.061.153,4.743,4.743,0,0,0-1.137.562l-.492-.656a4.114,4.114,0,0,1,1.216-.654,4.422,4.422,0,0,1,1.45-.237,2.97,2.97,0,0,1,1.94.571A1.925,1.925,0,0,1,20.83,21.965Z" style="fill:#223857"/><path d="M26.08,19.949l-3.193,8.567h-.973l3.193-8.567Z" style="fill:#223857"/><path d="M32.824,26.547H31.553v1.969h-.932V26.547H26.455V25.7L30.521,19.9h1.032v5.76h1.271Zm-2.2-.885V22.814q0-.837.059-1.892h-.047a8.82,8.82,0,0,1-.528.932l-2.677,3.808Z" style="fill:#223857"/></g></svg>