<svg id="icon" xmlns="http://www.w3.org/2000/svg" viewBox="0 0 48 48"><g id="harvey-ball-4-out-of-4-text"><path d="M24,48A24,24,0,1,1,48,24,24.027,24.027,0,0,1,24,48ZM24,6A18,18,0,1,0,42,24,18.021,18.021,0,0,0,24,6Z" style="fill:#1678c9"/><path d="M21.557,26.547H20.285v1.969h-.931V26.547H15.187V25.7L19.254,19.9h1.031v5.76h1.272Zm-2.2-.885V22.814q0-.837.058-1.892h-.047a8.833,8.833,0,0,1-.527.932L16.16,25.662Z" style="fill:#223857"/><path d="M26.08,19.949l-3.193,8.567h-.973l3.193-8.567Z" style="fill:#223857"/><path d="M32.824,26.547H31.553v1.969h-.932V26.547H26.455V25.7L30.521,19.9h1.032v5.76h1.271Zm-2.2-.885V22.814q0-.837.059-1.892h-.047a8.82,8.82,0,0,1-.528.932l-2.677,3.808Z" style="fill:#223857"/></g></svg>