<svg width="563" height="409" viewBox="0 0 563 409" fill="none" xmlns="http://www.w3.org/2000/svg">
  <path d="M499.428 67.5294C495.553 67.5294 491.772 67.9025 488.087 68.5706C476.938 35.6781 445.756 12 409.048 12C367.481 12 333.015 42.359 326.67 82.0799C324.063 81.646 321.395 81.4118 318.667 81.4118C291.787 81.4118 270 103.164 270 130H562C562 95.5024 533.982 67.5294 499.428 67.5294Z" stroke="#97A3B4" stroke-miterlimit="10"/>
  <rect x="53" y="79" width="352" height="212" rx="6" fill="white"/>
  <path d="M401 60C402.65 60 404 61.35 404 63V287C404 288.65 402.65 290 401 290H56C54.35 290 53 288.65 53 287V63C53 61.35 54.35 60 56 60H401ZM401 59H56C53.79 59 52 60.79 52 63V287C52 289.21 53.79 291 56 291H401C403.21 291 405 289.21 405 287V63C405 60.79 403.21 59 401 59Z" fill="#001B41"/>
  <path d="M56 59H401C403.21 59 405 61.0341 405 63.5455V78C405 81.3137 402.314 84 399 84H58C54.6863 84 52 81.3137 52 78V63.5455C52 61.0341 53.79 59 56 59Z" fill="#001B41"/>
  <path d="M63 72.5C64.3807 72.5 65.5 71.3807 65.5 70C65.5 68.6193 64.3807 67.5 63 67.5C61.6193 67.5 60.5 68.6193 60.5 70C60.5 71.3807 61.6193 72.5 63 72.5Z" stroke="#95CAEB"/>
  <path d="M73 72.5C74.3807 72.5 75.5 71.3807 75.5 70C75.5 68.6193 74.3807 67.5 73 67.5C71.6193 67.5 70.5 68.6193 70.5 70C70.5 71.3807 71.6193 72.5 73 72.5Z" stroke="#95CAEB"/>
  <path d="M83 72.5C84.3807 72.5 85.5 71.3807 85.5 70C85.5 68.6193 84.3807 67.5 83 67.5C81.6193 67.5 80.5 68.6193 80.5 70C80.5 71.3807 81.6193 72.5 83 72.5Z" stroke="#95CAEB"/>
  <rect x="52" y="81" width="353" height="24" fill="#003D8F"/>
  <path opacity="0.4" d="M182 95C183.1 95 184 94.1 184 93C184 91.9 183.1 91 182 91H140C138.9 91 138 91.9 138 93C138 94.1 138.9 95 140 95H182Z" fill="#BCC8D4"/>
  <path opacity="0.4" d="M235 95C236.1 95 237 94.1 237 93C237 91.9 236.1 91 235 91H203C201.9 91 201 91.9 201 93C201 94.1 201.9 95 203 95H235Z" fill="#BCC8D4"/>
  <path opacity="0.4" d="M284 95C285.1 95 286 94.1 286 93C286 91.9 285.1 91 284 91H256C254.9 91 254 91.9 254 93C254 94.1 254.9 95 256 95H284Z" fill="#BCC8D4"/>
  <path opacity="0.4" d="M353 95C354.1 95 355 94.1 355 93C355 91.9 354.1 91 353 91H305C303.9 91 303 91.9 303 93C303 94.1 303.9 95 305 95H353Z" fill="#BCC8D4"/>
  <g opacity="0.5" clip-path="url(#clip0_102_28)">
    <path d="M92.6521 97.9997C92.4987 97.9997 92.3453 97.9843 92.1951 97.9538C91.5422 97.8207 90.9729 97.4162 90.6338 96.8436L90.6255 96.8281C90.4566 96.4918 90.5676 96.096 90.8838 95.9073C90.9884 95.8449 91.1085 95.8118 91.2312 95.8118C91.4783 95.8118 91.7075 95.9459 91.8296 96.1616C91.8367 96.1738 91.8445 96.1873 91.8529 96.1999L91.9255 96.2986L92.0234 96.397C92.1451 96.5034 92.3014 96.5793 92.4693 96.6117C92.738 96.6629 93.0254 96.5982 93.2382 96.4368C93.4668 96.2713 93.6034 96.0256 93.6244 95.7443C93.646 95.4668 93.5459 95.1893 93.357 95.0009C93.357 95.0009 91.291 92.8644 91.1983 92.7654C91.1473 92.7107 91.052 92.6159 90.9493 92.4709C90.6577 92.0597 90.5667 91.5745 90.6116 91.0945C90.6342 90.7646 90.7346 90.4347 90.9025 90.1431C90.9025 90.1431 90.9971 89.9836 91.0249 89.9431C91.1344 89.7843 91.3498 89.5788 91.4973 89.4637C91.6388 89.3534 91.8283 89.2582 91.8939 89.2267C92.3007 89.0306 92.819 88.9396 93.3325 89.0467C93.9689 89.1827 94.5185 89.5782 94.8408 90.1325C94.9338 90.2868 94.9593 90.471 94.9122 90.6495C94.8644 90.8282 94.7485 90.9774 94.5857 91.0694C94.4862 91.1282 94.3697 91.16 94.2508 91.16C94.0051 91.16 93.7716 91.0234 93.6563 90.8118C93.5246 90.591 93.3099 90.4395 93.0551 90.3887C92.8055 90.3386 92.5297 90.3993 92.3259 90.552C92.1277 90.7003 92.0017 90.9337 91.9811 91.1925C91.961 91.4517 92.0485 91.6983 92.2271 91.887L94.3393 94.0557C94.8004 94.5296 95.0391 95.1823 94.9942 95.8475C94.9341 96.5217 94.5973 97.1329 94.0703 97.5261C93.6609 97.8322 93.1568 98.0007 92.6518 98.0007M85.9674 97.9997C87.22 97.9997 88.2388 96.985 88.2388 95.7375V91.2629C88.2391 90.0158 87.2203 89.001 85.9677 89.001C84.7151 89.001 83.696 90.0158 83.696 91.2626V95.7366C83.696 96.9837 84.7151 97.9988 85.9677 97.9988M85.9677 90.3669C86.4556 90.3669 86.8677 90.7771 86.8677 91.2629V95.7369C86.8677 96.2311 86.4637 96.633 85.9677 96.633C85.4627 96.633 85.0674 96.2394 85.0674 95.7369V91.2629C85.0674 90.7688 85.4714 90.3669 85.9677 90.3669M75.7655 90.7816V97.3156C75.7655 97.6982 76.0668 97.9981 76.4513 97.9981C76.8359 97.9981 77.1372 97.6982 77.1372 97.3156V93.6152L75.7658 90.7813L75.7655 90.7816ZM79.4858 93.3866V89.6836C79.4858 89.3007 79.7868 89.0007 80.1717 89.0007C80.5566 89.0007 80.8575 89.3007 80.8575 89.6836V96.2205L79.4858 93.3862V93.3866ZM80.8459 97.1686V97.3146C80.8472 97.5683 80.7038 97.8091 80.4552 97.9287C80.1135 98.093 79.716 97.9599 79.5455 97.6242L75.7739 89.8392V89.6833C75.7726 89.4296 75.9159 89.1891 76.1649 89.0695C76.5114 88.9033 76.9134 89.0432 77.0804 89.3878L80.8456 97.168L80.8459 97.1686ZM70.633 97.9991C71.2388 97.9991 71.8091 97.7634 72.2386 97.3358C72.6681 96.9079 72.9048 96.3404 72.9048 95.7372V91.2629C72.9048 90.6598 72.6681 90.092 72.2386 89.6643C71.8088 89.2364 71.2388 89.001 70.6327 89.001C70.0266 89.001 69.4566 89.2364 69.0272 89.6643C68.5977 90.092 68.361 90.6598 68.361 91.2629V95.7369C68.361 96.3401 68.5977 96.9075 69.0272 97.3355C69.4566 97.7631 70.0269 97.9988 70.6327 97.9988M70.6327 90.3669C70.8681 90.3669 71.0929 90.4614 71.2653 90.6331C71.4377 90.8048 71.5327 91.0285 71.5327 91.2629V95.7369C71.5327 95.9758 71.439 96.2008 71.2685 96.3703C71.0984 96.5397 70.8726 96.633 70.6324 96.633C70.3879 96.633 70.1606 96.541 69.9927 96.3738C69.8248 96.2066 69.7324 95.9803 69.7324 95.7369V91.2629C69.7324 91.024 69.8261 90.799 69.9966 90.6295C70.1667 90.4601 70.3925 90.3669 70.6327 90.3669M64 97.2435C64 97.6548 64.3349 97.9882 64.7479 97.9882C65.1609 97.9882 65.4958 97.6548 65.4958 97.2435V89.7444C65.4961 89.3332 65.1612 88.9997 64.7479 88.9997C64.3345 88.9997 64 89.3332 64 89.7444V97.2435Z" fill="white"/>
  </g>
  <path d="M54.635 297.438H25V327.073H54.635V297.438Z" fill="#1474C4"/>
  <path d="M161.321 297.438H54.635V327.073H161.321V297.438Z" fill="#95CAEB"/>
  <path d="M62.0438 304.847L69.4526 319.664" stroke="#001B41" stroke-miterlimit="10" stroke-linecap="round"/>
  <path d="M67.9708 304.847L75.3796 319.664" stroke="#001B41" stroke-miterlimit="10" stroke-linecap="round"/>
  <path d="M73.8978 304.847L81.3066 319.664" stroke="#001B41" stroke-miterlimit="10" stroke-linecap="round"/>
  <path d="M79.8248 304.847L87.2336 319.664" stroke="#001B41" stroke-miterlimit="10" stroke-linecap="round"/>
  <path d="M85.7518 304.847L93.1606 319.664" stroke="#001B41" stroke-miterlimit="10" stroke-linecap="round"/>
  <path d="M91.6788 304.847L99.0876 319.664" stroke="#001B41" stroke-miterlimit="10" stroke-linecap="round"/>
  <path d="M97.6058 304.847L105.015 319.664" stroke="#001B41" stroke-miterlimit="10" stroke-linecap="round"/>
  <path d="M103.533 304.847L110.942 319.664" stroke="#001B41" stroke-miterlimit="10" stroke-linecap="round"/>
  <path d="M109.46 304.847L116.869 319.664" stroke="#001B41" stroke-miterlimit="10" stroke-linecap="round"/>
  <path d="M25 264.839C25 263.202 26.3262 261.876 27.9635 261.876H57.5985V291.511H25V264.839Z" fill="#1474C4"/>
  <path d="M54.635 264.839C54.635 263.202 55.9612 261.876 57.5985 261.876H158.358C159.995 261.876 161.321 263.202 161.321 264.839V291.511H54.635V264.839Z" fill="#95CAEB"/>
  <path d="M62.0438 269.285L69.4526 284.102" stroke="#001B41" stroke-miterlimit="10" stroke-linecap="round"/>
  <path d="M67.9708 269.285L75.3796 284.102" stroke="#001B41" stroke-miterlimit="10" stroke-linecap="round"/>
  <path d="M73.8978 269.285L81.3066 284.102" stroke="#001B41" stroke-miterlimit="10" stroke-linecap="round"/>
  <path d="M79.8248 269.285L87.2336 284.102" stroke="#001B41" stroke-miterlimit="10" stroke-linecap="round"/>
  <path d="M85.7518 269.285L93.1606 284.102" stroke="#001B41" stroke-miterlimit="10" stroke-linecap="round"/>
  <path d="M91.6788 269.285L99.0876 284.102" stroke="#001B41" stroke-miterlimit="10" stroke-linecap="round"/>
  <path d="M97.6058 269.285L105.015 284.102" stroke="#001B41" stroke-miterlimit="10" stroke-linecap="round"/>
  <path d="M103.533 269.285L110.942 284.102" stroke="#001B41" stroke-miterlimit="10" stroke-linecap="round"/>
  <path d="M109.46 269.285L116.869 284.102" stroke="#001B41" stroke-miterlimit="10" stroke-linecap="round"/>
  <path d="M54.635 291.511H30.927V297.438H54.635V291.511Z" fill="#001B41"/>
  <path d="M155.394 291.511H54.635V297.438H155.394V291.511Z" fill="#1474C4"/>
  <path d="M246 144C254.837 144 262 136.837 262 128C262 119.163 254.837 112 246 112C237.163 112 230 119.163 230 128C230 136.837 237.163 144 246 144Z" fill="#FFAA00"/>
  <path d="M244.273 135C243.939 135 243.627 134.832 243.441 134.554L239.441 128.553C239.135 128.095 239.259 127.473 239.719 127.167C240.175 126.863 240.795 126.983 241.105 127.445L244.273 132.198L251.441 121.444C251.749 120.984 252.373 120.864 252.827 121.166C253.285 121.472 253.411 122.094 253.105 122.552L245.105 134.554C244.919 134.832 244.607 135 244.273 135Z" fill="white"/>
  <path d="M126.483 222.267H163.733V262H126.483C125.117 262 124 260.883 124 259.517V224.75C124 223.384 125.117 222.267 126.483 222.267Z" fill="#BCC8D4"/>
  <path d="M228.3 239.65C229.666 239.65 230.783 238.533 230.783 237.167C230.783 235.801 229.666 234.683 228.3 234.683H176.15C174.784 234.683 173.667 235.801 173.667 237.167C173.667 238.533 174.784 239.65 176.15 239.65H228.3Z" fill="#BCC8D4"/>
  <path d="M215.883 249.583C217.249 249.583 218.367 248.466 218.367 247.1C218.367 245.734 217.249 244.617 215.883 244.617H176.15C174.784 244.617 173.667 245.734 173.667 247.1C173.667 248.466 174.784 249.583 176.15 249.583H215.883Z" fill="#BCC8D4"/>
  <path d="M238.233 223.508C238.916 223.508 239.475 224.067 239.475 224.75V259.517C239.475 260.2 238.916 260.758 238.233 260.758H126.483C125.8 260.758 125.242 260.2 125.242 259.517V224.75C125.242 224.067 125.8 223.508 126.483 223.508H238.233ZM238.233 222.267H126.483C125.117 222.267 124 223.384 124 224.75V259.517C124 260.883 125.117 262 126.483 262H238.233C239.599 262 240.717 260.883 240.717 259.517V224.75C240.717 223.384 239.599 222.267 238.233 222.267Z" fill="#97A3B4"/>
  <path d="M246 212L246 199" stroke="#97A3B4"/>
  <path d="M246 163L246 144" stroke="#97A3B4"/>
  <path d="M309.008 222.267V214.817C309.008 213.451 307.891 212.333 306.525 212.333H184.842C183.476 212.333 182.358 213.451 182.358 214.817V222.267" stroke="#97A3B4"/>
  <path d="M253.133 222.267H290.383V262H253.133C251.767 262 250.65 260.883 250.65 259.517V224.75C250.65 223.384 251.767 222.267 253.133 222.267Z" fill="#BCC8D4"/>
  <mask id="path-48-inside-1_102_28" fill="white">
    <rect x="259.342" y="229.717" width="23.5917" height="7.45" rx="0.5"/>
  </mask>
  <rect x="259.342" y="229.717" width="23.5917" height="7.45" rx="0.5" stroke="#97A3B4" stroke-width="2" mask="url(#path-48-inside-1_102_28)"/>
  <rect x="260.583" y="229.717" width="2.48333" height="7.45" fill="#97A3B4"/>
  <path d="M269.275 233.942C269.551 233.942 269.775 233.718 269.775 233.442C269.775 233.166 269.551 232.942 269.275 232.942V233.942ZM259.342 233.942H269.275V232.942H259.342V233.942Z" fill="#97A3B4"/>
  <rect x="276.725" y="232.2" width="2.48333" height="2.48333" rx="0.5" fill="#97A3B4"/>
  <mask id="path-52-inside-2_102_28" fill="white">
    <rect x="259.342" y="238.409" width="23.5917" height="7.45" rx="0.5"/>
  </mask>
  <rect x="259.342" y="238.409" width="23.5917" height="7.45" rx="0.5" stroke="#97A3B4" stroke-width="2" mask="url(#path-52-inside-2_102_28)"/>
  <rect x="260.583" y="238.408" width="2.48333" height="7.45" fill="#97A3B4"/>
  <path d="M269.275 242.633C269.551 242.633 269.775 242.41 269.775 242.133C269.775 241.857 269.551 241.633 269.275 241.633V242.633ZM259.342 242.633H269.275V241.633H259.342V242.633Z" fill="#97A3B4"/>
  <rect x="276.725" y="240.892" width="2.48333" height="2.48333" rx="0.5" fill="#97A3B4"/>
  <mask id="path-56-inside-3_102_28" fill="white">
    <rect x="259.342" y="247.1" width="23.5917" height="7.45" rx="0.5"/>
  </mask>
  <rect x="259.342" y="247.1" width="23.5917" height="7.45" rx="0.5" stroke="#97A3B4" stroke-width="2" mask="url(#path-56-inside-3_102_28)"/>
  <rect x="260.583" y="247.1" width="2.48333" height="7.45" fill="#97A3B4"/>
  <path d="M269.275 251.325C269.551 251.325 269.775 251.101 269.775 250.825C269.775 250.549 269.551 250.325 269.275 250.325V251.325ZM259.342 251.325H269.275V250.325H259.342V251.325Z" fill="#97A3B4"/>
  <rect x="276.725" y="249.583" width="2.48333" height="2.48333" rx="0.5" fill="#97A3B4"/>
  <mask id="path-60-inside-4_102_28" fill="white">
    <rect x="132.692" y="229.717" width="23.5917" height="7.45" rx="0.5"/>
  </mask>
  <rect x="132.692" y="229.717" width="23.5917" height="7.45" rx="0.5" stroke="#97A3B4" stroke-width="2" mask="url(#path-60-inside-4_102_28)"/>
  <rect x="133.933" y="229.717" width="2.48333" height="7.45" fill="#97A3B4"/>
  <path d="M142.625 233.942C142.901 233.942 143.125 233.718 143.125 233.442C143.125 233.166 142.901 232.942 142.625 232.942V233.942ZM132.692 233.942H142.625V232.942H132.692V233.942Z" fill="#97A3B4"/>
  <rect x="150.075" y="232.2" width="2.48333" height="2.48333" rx="0.5" fill="#97A3B4"/>
  <mask id="path-64-inside-5_102_28" fill="white">
    <rect x="132.692" y="238.409" width="23.5917" height="7.45" rx="0.5"/>
  </mask>
  <rect x="132.692" y="238.409" width="23.5917" height="7.45" rx="0.5" stroke="#97A3B4" stroke-width="2" mask="url(#path-64-inside-5_102_28)"/>
  <rect x="133.933" y="238.408" width="2.48333" height="7.45" fill="#97A3B4"/>
  <path d="M142.625 242.633C142.901 242.633 143.125 242.41 143.125 242.133C143.125 241.857 142.901 241.633 142.625 241.633V242.633ZM132.692 242.633H142.625V241.633H132.692V242.633Z" fill="#97A3B4"/>
  <rect x="150.075" y="240.892" width="2.48333" height="2.48333" rx="0.5" fill="#97A3B4"/>
  <mask id="path-68-inside-6_102_28" fill="white">
    <rect x="132.692" y="247.1" width="23.5917" height="7.45" rx="0.5"/>
  </mask>
  <rect x="132.692" y="247.1" width="23.5917" height="7.45" rx="0.5" stroke="#97A3B4" stroke-width="2" mask="url(#path-68-inside-6_102_28)"/>
  <rect x="133.933" y="247.1" width="2.48333" height="7.45" fill="#97A3B4"/>
  <path d="M142.625 251.325C142.901 251.325 143.125 251.101 143.125 250.825C143.125 250.549 142.901 250.325 142.625 250.325V251.325ZM132.692 251.325H142.625V250.325H132.692V251.325Z" fill="#97A3B4"/>
  <rect x="150.075" y="249.583" width="2.48333" height="2.48333" rx="0.5" fill="#97A3B4"/>
  <path d="M354.95 239.65C356.316 239.65 357.433 238.533 357.433 237.167C357.433 235.801 356.316 234.683 354.95 234.683H302.8C301.434 234.683 300.317 235.801 300.317 237.167C300.317 238.533 301.434 239.65 302.8 239.65H354.95Z" fill="#BCC8D4"/>
  <path d="M342.533 249.583C343.899 249.583 345.017 248.466 345.017 247.1C345.017 245.734 343.899 244.617 342.533 244.617H302.8C301.434 244.617 300.317 245.734 300.317 247.1C300.317 248.466 301.434 249.583 302.8 249.583H342.533Z" fill="#BCC8D4"/>
  <path d="M364.883 223.509C365.566 223.509 366.125 224.067 366.125 224.75V259.517C366.125 260.2 365.566 260.759 364.883 260.759H253.133C252.45 260.759 251.892 260.2 251.892 259.517V224.75C251.892 224.067 252.45 223.509 253.133 223.509H364.883ZM364.883 222.267H253.133C251.767 222.267 250.65 223.384 250.65 224.75V259.517C250.65 260.883 251.767 262 253.133 262H364.883C366.249 262 367.367 260.883 367.367 259.517V224.75C367.367 223.384 366.249 222.267 364.883 222.267Z" fill="#97A3B4"/>
  <path d="M255.389 190.16H253.981V185.624C253.981 185.274 253.721 184.994 253.395 184.994C253.33 184.994 253.273 185.003 253.216 185.029C253.159 185.011 253.102 184.994 253.037 184.994H246.886V181.211H254.437C254.762 181.211 255.023 180.931 255.023 180.581V170.747C255.023 170.397 254.762 170.117 254.437 170.117H238.041C237.716 170.117 237.455 170.397 237.455 170.747V180.581C237.455 180.931 237.716 181.211 238.041 181.211H245.714V184.994H239.449C239.449 184.994 239.368 184.994 239.335 185.003C239.294 185.003 239.262 184.994 239.221 184.994C238.896 184.994 238.635 185.274 238.635 185.624V190.16H237.228C237.097 190.16 236.992 190.274 236.992 190.414V194.696C236.992 194.836 237.097 194.95 237.228 194.95H241.207C241.337 194.95 241.442 194.836 241.442 194.696V190.414C241.442 190.274 241.337 190.16 241.207 190.16H239.799V186.255H245.714V189.784C245.714 189.924 245.763 190.055 245.836 190.16H244.315C244.185 190.16 244.079 190.274 244.079 190.414V194.696C244.079 194.836 244.185 194.95 244.315 194.95H248.294C248.424 194.95 248.53 194.836 248.53 194.696V190.414C248.53 190.274 248.424 190.16 248.294 190.16H246.772C246.845 190.055 246.894 189.924 246.894 189.784V186.255H252.81V190.16H251.402C251.272 190.16 251.166 190.274 251.166 190.414V194.696C251.166 194.836 251.272 194.95 251.402 194.95H255.381C255.511 194.95 255.617 194.836 255.617 194.696V190.414C255.617 190.274 255.511 190.16 255.381 190.16H255.389ZM238.643 171.386H253.867V179.959H238.643V171.386Z" fill="#97A3B4"/>
  <rect width="38" height="38" rx="4" transform="matrix(-1 0 0 1 265 161)" fill="#003D8F"/>
  <path d="M235.742 172.784C236.21 171.293 237.256 169.969 238.658 169.112C239.815 168.411 241.083 168.088 242.24 168.2C243.765 165.718 247.181 165.095 249.896 165.618C253.479 166.308 255.849 168.7 255.926 171.727C255.926 171.838 255.926 171.927 255.926 171.994C256.104 172.072 256.327 172.183 256.594 172.383C259.331 174.442 259.776 177.835 258.997 180.294C258.363 182.286 257.039 183.543 255.526 183.588C255.504 183.588 255.481 183.588 255.459 183.588C255.415 183.588 255.359 183.588 255.303 183.588C255.225 183.588 254.992 183.588 254.302 183.588C253.801 183.588 253.401 183.187 253.401 182.687C253.401 182.186 253.801 181.785 254.302 181.785C254.881 181.785 255.17 181.785 255.314 181.785C255.37 181.785 255.415 181.785 255.47 181.785H255.493C256.193 181.763 256.928 180.951 257.306 179.749C257.896 177.891 257.573 175.343 255.537 173.819C255.337 173.674 255.225 173.629 255.103 173.585C254.191 173.24 254.168 172.561 254.146 171.771C254.079 169.168 251.643 167.777 249.573 167.387C247.247 166.942 244.432 167.543 243.576 169.557C243.398 169.969 242.953 170.18 242.53 170.069C241.673 169.846 240.571 170.069 239.603 170.659C238.468 171.348 237.656 172.428 237.389 173.629C237.322 173.908 237.133 174.141 236.877 174.253C234.062 175.488 234.396 178.225 234.574 179.037C234.897 180.561 235.865 181.808 236.744 181.808C236.9 181.808 236.966 181.808 236.989 181.808C236.989 181.808 237.033 181.808 237.055 181.808C237.055 181.808 237.078 181.808 237.089 181.808C237.189 181.808 237.289 181.808 237.367 181.808C237.678 181.808 238.246 181.808 239.247 181.808C239.748 181.808 240.149 182.208 240.149 182.709C240.149 183.21 239.748 183.61 239.247 183.61C237.534 183.61 237.1 183.61 237.033 183.61C237.033 183.61 236.989 183.61 236.955 183.61C236.955 183.61 236.933 183.61 236.922 183.61C236.866 183.61 236.81 183.61 236.744 183.61C234.975 183.61 233.317 181.852 232.805 179.415C232.349 177.257 232.872 174.297 235.753 172.806L235.742 172.784ZM254.78 183.299C254.78 183.299 254.725 183.243 254.702 183.21C254.725 183.243 254.747 183.276 254.78 183.299ZM254.68 183.165C254.68 183.165 254.636 183.087 254.613 183.054C254.636 183.098 254.658 183.132 254.68 183.165ZM254.602 182.998C254.602 182.998 254.569 182.92 254.569 182.876C254.569 182.92 254.591 182.954 254.602 182.998Z" fill="white"/>
  <path d="M250.319 179.415C250.808 179.415 251.22 179.816 251.22 180.317V184.434L255.326 187.226C255.726 186.948 256.227 186.781 256.75 186.781C258.13 186.781 259.253 187.905 259.253 189.285C259.253 190.665 258.13 191.788 256.75 191.788C255.37 191.788 254.246 190.665 254.246 189.285C254.246 189.085 254.269 188.895 254.313 188.706L249.818 185.646C249.573 185.479 249.428 185.201 249.428 184.901V180.305C249.417 179.805 249.818 179.404 250.307 179.404L250.319 179.415Z" fill="white"/>
  <path d="M245.879 189.797V180.305C245.879 179.805 246.279 179.404 246.78 179.404C247.281 179.404 247.681 179.805 247.681 180.305V189.797C248.616 190.164 249.295 191.065 249.295 192.133C249.295 193.513 248.171 194.637 246.791 194.637C245.411 194.637 244.288 193.513 244.288 192.133C244.288 191.065 244.955 190.153 245.901 189.797H245.879Z" fill="white"/>
  <path d="M236.733 186.77C237.267 186.77 237.756 186.937 238.157 187.215L242.252 184.422V180.305C242.263 179.805 242.663 179.404 243.164 179.404C243.665 179.404 244.065 179.805 244.065 180.305V184.901C244.054 185.201 243.909 185.479 243.665 185.646L239.169 188.706C239.214 188.895 239.236 189.085 239.236 189.285C239.236 190.665 238.112 191.788 236.733 191.788C235.353 191.788 234.229 190.665 234.229 189.285C234.229 187.905 235.353 186.781 236.733 186.781V186.77Z" fill="white"/>
  <path d="M156.668 286.528L143.287 324.232L134.909 321.258L132.44 276.358L137.39 265.536L156.668 286.528Z" fill="#FFAA00"/>
  <path d="M160.68 248.644L170.405 327.567L159.234 323.602L137.795 268.824L160.68 248.644Z" fill="#FFD176"/>
  <path d="M156.12 330.515L169.458 352.387L173.647 353.874L170.405 327.567L159.234 323.602L158.004 324.187C155.62 325.322 154.748 328.268 156.12 330.515Z" fill="#1474C4"/>
  <path d="M128.193 327.067L130.583 351.169L133.376 352.16L143.287 324.232L134.909 321.258L131.293 322.388C129.277 323.017 127.985 324.972 128.193 327.067Z" fill="#1474C4"/>
  <path d="M103.632 266.134L132.44 276.358L160.68 248.645L86.6697 222.378L87.8864 245.066C88.4028 254.62 94.6115 262.932 103.632 266.134Z" fill="#97A3B4"/>
  <path d="M114.846 145.799C115.141 145.81 115.426 145.761 115.7 145.631C116.135 145.423 116.473 145.048 116.636 144.587C116.75 144.266 116.771 143.919 116.7 143.588C116.629 143.256 116.464 142.946 116.227 142.705L112.421 138.744L109.719 133.068L99.9436 129.598L90.0318 157.527L96.7416 159.908C100.149 161.117 103.89 160.92 107.151 159.373C110.415 157.819 112.92 155.037 114.129 151.63C114.726 149.947 114.986 148.152 114.896 146.367C114.886 146.175 114.859 145.985 114.842 145.79L114.846 145.799Z" fill="#FFD176"/>
  <path d="M85.9304 151.362C84.904 150.998 84.1203 150.083 83.9785 148.932C83.7779 147.304 84.9311 145.827 86.5589 145.626L103.001 143.6C104.629 143.399 106.106 144.553 106.307 146.18C106.507 147.808 105.354 149.286 103.726 149.486L87.2843 151.512C86.8144 151.574 86.3493 151.511 85.9304 151.362Z" fill="#FFAA00"/>
  <path d="M104.221 126.407C101.651 125.496 98.9315 125.096 96.2082 125.238C93.4849 125.38 90.824 126.055 88.3644 127.226C87.2859 127.74 86.2595 128.35 85.2925 129.037C85.0562 126.225 83.2261 123.673 80.3914 122.667C76.5373 121.299 72.2992 123.317 70.9313 127.171C69.5635 131.025 71.5813 135.264 75.4354 136.631C76.4688 136.998 77.535 137.117 78.5655 137.027C78.2553 137.679 77.973 138.342 77.7327 139.019C75.8916 144.207 76.187 149.909 78.5516 154.875C80.9163 159.842 85.1565 163.666 90.3442 165.507L100.256 137.579L113.293 132.764C110.905 129.857 107.77 127.659 104.221 126.407Z" fill="#001B41"/>
  <path d="M143.5 181.5L151.855 171.861L168.5 171.479L150.5 199C148.5 201.5 145 212.5 135.058 207.492L118.062 198.142L120.177 234.27L86.6627 222.376L84.3561 182.69C83.679 171.019 96.1486 163.196 106.361 168.888L138 187L143.5 181.5Z" fill="#1474C4"/>
  <path d="M152.048 171.551L152.048 163.863C152.429 160.772 155.138 158.505 158.246 158.668L167.887 159.185C170.348 159.318 172.495 160.915 173.322 163.247C174.148 165.572 173.495 166.162 171.664 167.826L167.546 171.551L152.048 171.551Z" fill="#FFD176"/>
  <path d="M117.252 197.698L102.24 189.383" stroke="#001B41" stroke-miterlimit="10" stroke-linecap="round"/>
  <defs>
    <clipPath id="clip0_102_28">
      <rect width="31" height="9" fill="white" transform="translate(64 89)"/>
    </clipPath>
  </defs>
</svg>
