<svg width="563" height="409" viewBox="0 0 563 409" fill="none" xmlns="http://www.w3.org/2000/svg">
  <path d="M499.429 68.5294C495.553 68.5294 491.772 68.9025 488.088 69.5706C476.938 36.6781 445.756 13 409.048 13C367.481 13 333.015 43.359 326.671 83.0799C324.063 82.646 321.395 82.4118 318.667 82.4118C291.787 82.4118 270 104.164 270 131H562C562 96.5024 533.982 68.5294 499.429 68.5294Z" stroke="#97A3B4" stroke-miterlimit="10"/>
  <rect x="52" y="92" width="353" height="199" rx="3" fill="white"/>
  <path d="M401 61C402.65 61 404 62.35 404 64V288C404 289.65 402.65 291 401 291H56C54.35 291 53 289.65 53 288V64C53 62.35 54.35 61 56 61H401ZM401 60H56C53.79 60 52 61.79 52 64V288C52 290.21 53.79 292 56 292H401C403.21 292 405 290.21 405 288V64C405 61.79 403.21 60 401 60Z" fill="#001B41"/>
  <path d="M56 60H401C403.21 60 405 61.79 405 64V82H52V64C52 61.79 53.79 60 56 60Z" fill="#001B41"/>
  <path d="M63 73.5C64.3807 73.5 65.5 72.3807 65.5 71C65.5 69.6193 64.3807 68.5 63 68.5C61.6193 68.5 60.5 69.6193 60.5 71C60.5 72.3807 61.6193 73.5 63 73.5Z" fill="#001B41" stroke="#95CAEB"/>
  <path d="M73 73.5C74.3807 73.5 75.5 72.3807 75.5 71C75.5 69.6193 74.3807 68.5 73 68.5C71.6193 68.5 70.5 69.6193 70.5 71C70.5 72.3807 71.6193 73.5 73 73.5Z" fill="#001B41" stroke="#95CAEB"/>
  <path d="M83 73.5C84.3807 73.5 85.5 72.3807 85.5 71C85.5 69.6193 84.3807 68.5 83 68.5C81.6193 68.5 80.5 69.6193 80.5 71C80.5 72.3807 81.6193 73.5 83 73.5Z" fill="#001B41" stroke="#95CAEB"/>
  <path d="M132 216H162V248H132C130.9 248 130 247.1 130 246V218C130 216.9 130.9 216 132 216Z" fill="#BCC8D4"/>
  <path d="M214 230C215.1 230 216 229.1 216 228C216 226.9 215.1 226 214 226H172C170.9 226 170 226.9 170 228C170 229.1 170.9 230 172 230H214Z" fill="#BCC8D4"/>
  <path d="M204 238C205.1 238 206 237.1 206 236C206 234.9 205.1 234 204 234H172C170.9 234 170 234.9 170 236C170 237.1 170.9 238 172 238H204Z" fill="#BCC8D4"/>
  <path d="M222 217C222.55 217 223 217.45 223 218V246C223 246.55 222.55 247 222 247H132C131.45 247 131 246.55 131 246V218C131 217.45 131.45 217 132 217H222ZM222 216H132C130.9 216 130 216.9 130 218V246C130 247.1 130.9 248 132 248H222C223.1 248 224 247.1 224 246V218C224 216.9 223.1 216 222 216Z" fill="#BCC8D4"/>
  <path d="M228 208V200" stroke="#97A3B4"/>
  <path d="M228 168V160" stroke="#97A3B4"/>
  <path d="M279 216V210C279 208.9 278.1 208 277 208H179C177.9 208 177 208.9 177 210V216" stroke="#97A3B4"/>
  <path d="M234 216H264V248H234C232.9 248 232 247.1 232 246V218C232 216.9 232.9 216 234 216Z" fill="#BCC8D4"/>
  <mask id="path-16-inside-1_102_246" fill="white">
    <rect x="239" y="222" width="19" height="6" rx="0.5"/>
  </mask>
  <rect x="239" y="222" width="19" height="6" rx="0.5" fill="#BCC8D4" stroke="#97A3B4" stroke-width="2" mask="url(#path-16-inside-1_102_246)"/>
  <rect x="240" y="222" width="2" height="6" fill="#97A3B4"/>
  <path d="M247 225.5C247.276 225.5 247.5 225.276 247.5 225C247.5 224.724 247.276 224.5 247 224.5V225.5ZM239 225.5H247V224.5H239V225.5Z" fill="#97A3B4"/>
  <rect x="253" y="224" width="2" height="2" rx="0.5" fill="#97A3B4"/>
  <mask id="path-20-inside-2_102_246" fill="white">
    <rect x="239" y="229" width="19" height="6" rx="0.5"/>
  </mask>
  <rect x="239" y="229" width="19" height="6" rx="0.5" fill="#BCC8D4" stroke="#97A3B4" stroke-width="2" mask="url(#path-20-inside-2_102_246)"/>
  <rect x="240" y="229" width="2" height="6" fill="#97A3B4"/>
  <path d="M247 232.5C247.276 232.5 247.5 232.276 247.5 232C247.5 231.724 247.276 231.5 247 231.5V232.5ZM239 232.5H247V231.5H239V232.5Z" fill="#97A3B4"/>
  <rect x="253" y="231" width="2" height="2" rx="0.5" fill="#97A3B4"/>
  <mask id="path-24-inside-3_102_246" fill="white">
    <rect x="239" y="236" width="19" height="6" rx="0.5"/>
  </mask>
  <rect x="239" y="236" width="19" height="6" rx="0.5" fill="#BCC8D4" stroke="#97A3B4" stroke-width="2" mask="url(#path-24-inside-3_102_246)"/>
  <rect x="240" y="236" width="2" height="6" fill="#97A3B4"/>
  <path d="M247 239.5C247.276 239.5 247.5 239.276 247.5 239C247.5 238.724 247.276 238.5 247 238.5V239.5ZM239 239.5H247V238.5H239V239.5Z" fill="#97A3B4"/>
  <rect x="253" y="238" width="2" height="2" rx="0.5" fill="#97A3B4"/>
  <mask id="path-28-inside-4_102_246" fill="white">
    <rect x="137" y="222" width="19" height="6" rx="0.5"/>
  </mask>
  <rect x="137" y="222" width="19" height="6" rx="0.5" fill="#BCC8D4" stroke="#97A3B4" stroke-width="2" mask="url(#path-28-inside-4_102_246)"/>
  <rect x="138" y="222" width="2" height="6" fill="#97A3B4"/>
  <path d="M145 225.5C145.276 225.5 145.5 225.276 145.5 225C145.5 224.724 145.276 224.5 145 224.5V225.5ZM137 225.5H145V224.5H137V225.5Z" fill="#97A3B4"/>
  <rect x="151" y="224" width="2" height="2" rx="0.5" fill="#97A3B4"/>
  <mask id="path-32-inside-5_102_246" fill="white">
    <rect x="137" y="229" width="19" height="6" rx="0.5"/>
  </mask>
  <rect x="137" y="229" width="19" height="6" rx="0.5" fill="#BCC8D4" stroke="#97A3B4" stroke-width="2" mask="url(#path-32-inside-5_102_246)"/>
  <rect x="138" y="229" width="2" height="6" fill="#97A3B4"/>
  <path d="M145 232.5C145.276 232.5 145.5 232.276 145.5 232C145.5 231.724 145.276 231.5 145 231.5V232.5ZM137 232.5H145V231.5H137V232.5Z" fill="#97A3B4"/>
  <rect x="151" y="231" width="2" height="2" rx="0.5" fill="#97A3B4"/>
  <mask id="path-36-inside-6_102_246" fill="white">
    <rect x="137" y="236" width="19" height="6" rx="0.5"/>
  </mask>
  <rect x="137" y="236" width="19" height="6" rx="0.5" fill="#BCC8D4" stroke="#97A3B4" stroke-width="2" mask="url(#path-36-inside-6_102_246)"/>
  <rect x="138" y="236" width="2" height="6" fill="#97A3B4"/>
  <path d="M145 239.5C145.276 239.5 145.5 239.276 145.5 239C145.5 238.724 145.276 238.5 145 238.5V239.5ZM137 239.5H145V238.5H137V239.5Z" fill="#97A3B4"/>
  <rect x="151" y="238" width="2" height="2" rx="0.5" fill="#97A3B4"/>
  <path d="M316 230C317.1 230 318 229.1 318 228C318 226.9 317.1 226 316 226H274C272.9 226 272 226.9 272 228C272 229.1 272.9 230 274 230H316Z" fill="#BCC8D4"/>
  <path d="M306 238C307.1 238 308 237.1 308 236C308 234.9 307.1 234 306 234H274C272.9 234 272 234.9 272 236C272 237.1 272.9 238 274 238H306Z" fill="#BCC8D4"/>
  <path d="M324 217C324.55 217 325 217.45 325 218V246C325 246.55 324.55 247 324 247H234C233.45 247 233 246.55 233 246V218C233 217.45 233.45 217 234 217H324ZM324 216H234C232.9 216 232 216.9 232 218V246C232 247.1 232.9 248 234 248H324C325.1 248 326 247.1 326 246V218C326 216.9 325.1 216 324 216Z" fill="#BCC8D4"/>
  <path d="M242 169C242.55 169 243 169.45 243 170V198C243 198.55 242.55 199 242 199H214C213.45 199 213 198.55 213 198V170C213 169.45 213.45 169 214 169H242ZM242 168H214C212.9 168 212 168.9 212 170V198C212 199.1 212.9 200 214 200H242C243.1 200 244 199.1 244 198V170C244 168.9 243.1 168 242 168Z" fill="#BCC8D4"/>
  <path d="M235.817 190.142H234.683V186.489C234.683 186.207 234.473 185.982 234.211 185.982C234.159 185.982 234.113 185.989 234.067 186.01C234.021 185.996 233.975 185.982 233.923 185.982H228.969V182.935H235.05C235.312 182.935 235.522 182.709 235.522 182.427V174.508C235.522 174.226 235.312 174 235.05 174H221.845C221.583 174 221.374 174.226 221.374 174.508V182.427C221.374 182.709 221.583 182.935 221.845 182.935H228.025V185.982H222.979C222.979 185.982 222.914 185.982 222.887 185.989C222.855 185.989 222.828 185.982 222.796 185.982C222.533 185.982 222.324 186.207 222.324 186.489V190.142H221.19C221.085 190.142 221 190.234 221 190.347V193.795C221 193.908 221.085 194 221.19 194H224.394C224.499 194 224.585 193.908 224.585 193.795V190.347C224.585 190.234 224.499 190.142 224.394 190.142H223.261V186.997H228.025V189.839C228.025 189.952 228.064 190.058 228.123 190.142H226.898C226.793 190.142 226.708 190.234 226.708 190.347V193.795C226.708 193.908 226.793 194 226.898 194H230.102C230.207 194 230.292 193.908 230.292 193.795V190.347C230.292 190.234 230.207 190.142 230.102 190.142H228.877C228.936 190.058 228.975 189.952 228.975 189.839V186.997H233.739V190.142H232.606C232.501 190.142 232.415 190.234 232.415 190.347V193.795C232.415 193.908 232.501 194 232.606 194H235.81C235.915 194 236 193.908 236 193.795V190.347C236 190.234 235.915 190.142 235.81 190.142H235.817ZM222.33 175.023H234.591V181.927H222.33V175.023Z" fill="#BCC8D4"/>
  <path d="M242 129C242.55 129 243 129.45 243 130V158C243 158.55 242.55 159 242 159H214C213.45 159 213 158.55 213 158V130C213 129.45 213.45 129 214 129H242ZM242 128H214C212.9 128 212 128.9 212 130V158C212 159.1 212.9 160 214 160H242C243.1 160 244 159.1 244 158V130C244 128.9 243.1 128 242 128Z" fill="#BCC8D4"/>
  <path d="M228.5 149.5V153M228.5 153H233.5M228.5 153H223.5" stroke="#97A3B4"/>
  <path d="M230.711 136.377L230.875 136.642L231.185 136.613C231.95 136.539 232.818 136.751 233.63 137.243C234.073 137.514 235.079 138.306 235.653 139.83L235.721 140.01L235.891 140.098C237.846 141.11 238.251 143.006 237.898 144.625C237.734 145.375 237.245 146.086 236.578 146.614C235.911 147.142 235.108 147.454 234.36 147.454H221.938C221.466 147.438 220.759 147.222 220.108 146.817C219.453 146.41 218.934 145.865 218.74 145.255C218.19 143.518 218.516 141.153 220.41 139.729C220.577 139.604 220.712 139.537 220.823 139.488L221.123 139.357V139.03V138.831C221.178 136.806 222.764 135.121 225.351 134.623L225.351 134.623C226.325 134.435 227.422 134.455 228.401 134.738C229.377 135.021 230.207 135.556 230.711 136.377Z" fill="#BCC8D4" stroke="#97A3B4"/>
  <path d="M225.5 147.5V149.5H231.5V147.5" stroke="#97A3B4"/>
  <rect x="226" y="152" width="5" height="2" fill="#BCC8D4"/>
  <rect x="52" y="82" width="353" height="24" fill="#003D8F"/>
  <path opacity="0.4" d="M182 96C183.1 96 184 95.1 184 94C184 92.9 183.1 92 182 92H140C138.9 92 138 92.9 138 94C138 95.1 138.9 96 140 96H182Z" fill="#BCC8D4"/>
  <path opacity="0.4" d="M235 96C236.1 96 237 95.1 237 94C237 92.9 236.1 92 235 92H203C201.9 92 201 92.9 201 94C201 95.1 201.9 96 203 96H235Z" fill="#BCC8D4"/>
  <path opacity="0.4" d="M284 96C285.1 96 286 95.1 286 94C286 92.9 285.1 92 284 92H256C254.9 92 254 92.9 254 94C254 95.1 254.9 96 256 96H284Z" fill="#BCC8D4"/>
  <path opacity="0.4" d="M353 96C354.1 96 355 95.1 355 94C355 92.9 354.1 92 353 92H305C303.9 92 303 92.9 303 94C303 95.1 303.9 96 305 96H353Z" fill="#BCC8D4"/>
  <g opacity="0.5" clip-path="url(#clip0_102_246)">
    <path d="M92.6521 98.9997C92.4987 98.9997 92.3453 98.9843 92.1951 98.9538C91.5422 98.8207 90.9729 98.4162 90.6338 97.8436L90.6255 97.8281C90.4566 97.4918 90.5676 97.096 90.8838 96.9073C90.9884 96.8449 91.1085 96.8118 91.2312 96.8118C91.4783 96.8118 91.7075 96.9459 91.8296 97.1616C91.8367 97.1738 91.8445 97.1873 91.8529 97.1999L91.9255 97.2986L92.0234 97.397C92.1451 97.5034 92.3014 97.5793 92.4693 97.6117C92.738 97.6629 93.0254 97.5982 93.2382 97.4368C93.4668 97.2713 93.6034 97.0256 93.6244 96.7443C93.646 96.4668 93.5459 96.1893 93.357 96.0009C93.357 96.0009 91.291 93.8644 91.1983 93.7654C91.1473 93.7107 91.052 93.6159 90.9493 93.4709C90.6577 93.0597 90.5667 92.5745 90.6116 92.0945C90.6342 91.7646 90.7346 91.4347 90.9025 91.1431C90.9025 91.1431 90.9971 90.9836 91.0249 90.9431C91.1344 90.7843 91.3498 90.5788 91.4973 90.4637C91.6388 90.3534 91.8283 90.2582 91.8939 90.2267C92.3007 90.0306 92.819 89.9396 93.3325 90.0467C93.9689 90.1827 94.5185 90.5782 94.8408 91.1325C94.9338 91.2868 94.9593 91.471 94.9122 91.6495C94.8644 91.8282 94.7485 91.9774 94.5857 92.0694C94.4862 92.1282 94.3697 92.16 94.2508 92.16C94.0051 92.16 93.7716 92.0234 93.6563 91.8118C93.5246 91.591 93.3099 91.4395 93.0551 91.3887C92.8055 91.3386 92.5297 91.3993 92.3259 91.552C92.1277 91.7003 92.0017 91.9337 91.9811 92.1925C91.961 92.4517 92.0485 92.6983 92.2271 92.887L94.3393 95.0557C94.8004 95.5296 95.0391 96.1823 94.9942 96.8475C94.9341 97.5217 94.5973 98.1329 94.0703 98.5261C93.6609 98.8322 93.1568 99.0007 92.6518 99.0007M85.9674 98.9997C87.22 98.9997 88.2388 97.985 88.2388 96.7375V92.2629C88.2391 91.0158 87.2203 90.001 85.9677 90.001C84.7151 90.001 83.696 91.0158 83.696 92.2626V96.7366C83.696 97.9837 84.7151 98.9988 85.9677 98.9988M85.9677 91.3669C86.4556 91.3669 86.8677 91.7771 86.8677 92.2629V96.7369C86.8677 97.2311 86.4637 97.633 85.9677 97.633C85.4627 97.633 85.0674 97.2394 85.0674 96.7369V92.2629C85.0674 91.7688 85.4714 91.3669 85.9677 91.3669M75.7655 91.7816V98.3156C75.7655 98.6982 76.0668 98.9981 76.4513 98.9981C76.8359 98.9981 77.1372 98.6982 77.1372 98.3156V94.6152L75.7658 91.7813L75.7655 91.7816ZM79.4858 94.3866V90.6836C79.4858 90.3007 79.7868 90.0007 80.1717 90.0007C80.5566 90.0007 80.8575 90.3007 80.8575 90.6836V97.2205L79.4858 94.3862V94.3866ZM80.8459 98.1686V98.3146C80.8472 98.5683 80.7038 98.8091 80.4552 98.9287C80.1135 99.093 79.716 98.9599 79.5455 98.6242L75.7739 90.8392V90.6833C75.7726 90.4296 75.9159 90.1891 76.1649 90.0695C76.5114 89.9033 76.9134 90.0432 77.0804 90.3878L80.8456 98.168L80.8459 98.1686ZM70.633 98.9991C71.2388 98.9991 71.8091 98.7634 72.2386 98.3358C72.6681 97.9079 72.9048 97.3404 72.9048 96.7372V92.2629C72.9048 91.6598 72.6681 91.092 72.2386 90.6643C71.8088 90.2364 71.2388 90.001 70.6327 90.001C70.0266 90.001 69.4566 90.2364 69.0272 90.6643C68.5977 91.092 68.361 91.6598 68.361 92.2629V96.7369C68.361 97.3401 68.5977 97.9075 69.0272 98.3355C69.4566 98.7631 70.0269 98.9988 70.6327 98.9988M70.6327 91.3669C70.8681 91.3669 71.0929 91.4614 71.2653 91.6331C71.4377 91.8048 71.5327 92.0285 71.5327 92.2629V96.7369C71.5327 96.9758 71.439 97.2008 71.2685 97.3703C71.0984 97.5397 70.8726 97.633 70.6324 97.633C70.3879 97.633 70.1606 97.541 69.9927 97.3738C69.8248 97.2066 69.7324 96.9803 69.7324 96.7369V92.2629C69.7324 92.024 69.8261 91.799 69.9966 91.6295C70.1667 91.4601 70.3925 91.3669 70.6327 91.3669M64 98.2435C64 98.6548 64.3349 98.9882 64.7479 98.9882C65.1609 98.9882 65.4958 98.6548 65.4958 98.2435V90.7444C65.4961 90.3332 65.1612 89.9997 64.7479 89.9997C64.3345 89.9997 64 90.3332 64 90.7444V98.2435Z" fill="white"/>
  </g>
  <g opacity="0.2">
    <rect width="29.1937" height="29.1937" rx="4" transform="matrix(-1 0 0 1 334.194 149)" fill="#003D8F"/>
    <path d="M311.716 158.053C312.075 156.907 312.879 155.89 313.956 155.232C314.845 154.693 315.82 154.446 316.709 154.531C317.88 152.625 320.504 152.146 322.59 152.548C325.342 153.078 327.163 154.916 327.223 157.241C327.223 157.326 327.223 157.395 327.223 157.446C327.36 157.506 327.531 157.591 327.736 157.745C329.839 159.327 330.181 161.934 329.582 163.823C329.095 165.353 328.078 166.319 326.915 166.353C326.898 166.353 326.881 166.353 326.864 166.353C326.83 166.353 326.787 166.353 326.744 166.353C326.685 166.353 326.505 166.353 325.975 166.353C325.59 166.353 325.283 166.046 325.283 165.661C325.283 165.276 325.59 164.969 325.975 164.969C326.42 164.969 326.642 164.969 326.753 164.969C326.796 164.969 326.83 164.969 326.873 164.969H326.89C327.428 164.951 327.992 164.327 328.283 163.404C328.736 161.977 328.488 160.019 326.924 158.848C326.77 158.737 326.685 158.703 326.59 158.668C325.89 158.403 325.872 157.882 325.855 157.275C325.804 155.275 323.932 154.206 322.342 153.907C320.555 153.565 318.393 154.027 317.734 155.574C317.598 155.89 317.256 156.053 316.931 155.967C316.273 155.796 315.426 155.967 314.683 156.42C313.811 156.95 313.187 157.779 312.982 158.703C312.93 158.916 312.785 159.096 312.588 159.181C310.426 160.13 310.682 162.233 310.819 162.857C311.067 164.028 311.81 164.986 312.486 164.986C312.605 164.986 312.657 164.986 312.674 164.986C312.674 164.986 312.708 164.986 312.725 164.986C312.725 164.986 312.742 164.986 312.751 164.986C312.828 164.986 312.905 164.986 312.964 164.986C313.204 164.986 313.64 164.986 314.409 164.986C314.794 164.986 315.102 165.293 315.102 165.678C315.102 166.063 314.794 166.37 314.409 166.37C313.093 166.37 312.759 166.37 312.708 166.37C312.708 166.37 312.674 166.37 312.648 166.37C312.648 166.37 312.631 166.37 312.623 166.37C312.58 166.37 312.537 166.37 312.486 166.37C311.127 166.37 309.853 165.02 309.46 163.148C309.109 161.489 309.511 159.216 311.725 158.07L311.716 158.053ZM326.343 166.131C326.343 166.131 326.3 166.088 326.283 166.063C326.3 166.088 326.317 166.114 326.343 166.131ZM326.266 166.029C326.266 166.029 326.231 165.969 326.214 165.943C326.231 165.977 326.249 166.003 326.266 166.029ZM326.206 165.9C326.206 165.9 326.18 165.84 326.18 165.806C326.18 165.84 326.197 165.866 326.206 165.9Z" fill="white"/>
    <path d="M322.915 163.148C323.291 163.148 323.607 163.455 323.607 163.84V167.003L326.761 169.149C327.069 168.935 327.454 168.807 327.856 168.807C328.916 168.807 329.779 169.67 329.779 170.73C329.779 171.79 328.916 172.653 327.856 172.653C326.796 172.653 325.932 171.79 325.932 170.73C325.932 170.576 325.949 170.431 325.984 170.286L322.53 167.935C322.342 167.807 322.231 167.593 322.231 167.362V163.832C322.222 163.447 322.53 163.139 322.906 163.139L322.915 163.148Z" fill="white"/>
    <path d="M319.504 171.123V163.832C319.504 163.447 319.812 163.139 320.196 163.139C320.581 163.139 320.889 163.447 320.889 163.832V171.123C321.607 171.405 322.128 172.098 322.128 172.918C322.128 173.978 321.265 174.842 320.205 174.842C319.145 174.842 318.281 173.978 318.281 172.918C318.281 172.098 318.794 171.397 319.521 171.123H319.504Z" fill="white"/>
    <path d="M312.477 168.798C312.888 168.798 313.264 168.926 313.571 169.14L316.717 166.994V163.832C316.726 163.447 317.033 163.139 317.418 163.139C317.803 163.139 318.111 163.447 318.111 163.832V167.362C318.102 167.593 317.991 167.807 317.803 167.935L314.349 170.286C314.383 170.431 314.401 170.576 314.401 170.73C314.401 171.79 313.537 172.653 312.477 172.653C311.417 172.653 310.554 171.79 310.554 170.73C310.554 169.67 311.417 168.807 312.477 168.807V168.798Z" fill="white"/>
  </g>
  <g opacity="0.6">
    <rect width="29.1937" height="29.1937" rx="4" transform="matrix(-1 0 0 1 328.194 152)" fill="#003D8F"/>
    <path d="M305.716 161.053C306.075 159.907 306.879 158.89 307.956 158.232C308.845 157.693 309.82 157.446 310.709 157.531C311.88 155.625 314.504 155.146 316.59 155.548C319.342 156.078 321.163 157.916 321.223 160.241C321.223 160.326 321.223 160.395 321.223 160.446C321.36 160.506 321.531 160.591 321.736 160.745C323.839 162.327 324.181 164.934 323.582 166.823C323.095 168.353 322.078 169.319 320.915 169.353C320.898 169.353 320.881 169.353 320.864 169.353C320.83 169.353 320.787 169.353 320.744 169.353C320.685 169.353 320.505 169.353 319.975 169.353C319.59 169.353 319.283 169.046 319.283 168.661C319.283 168.276 319.59 167.969 319.975 167.969C320.42 167.969 320.642 167.969 320.753 167.969C320.796 167.969 320.83 167.969 320.873 167.969H320.89C321.428 167.951 321.992 167.327 322.283 166.404C322.736 164.977 322.488 163.019 320.924 161.848C320.77 161.737 320.685 161.703 320.59 161.668C319.89 161.403 319.872 160.882 319.855 160.275C319.804 158.275 317.932 157.206 316.342 156.907C314.555 156.565 312.393 157.027 311.734 158.574C311.598 158.89 311.256 159.053 310.931 158.967C310.273 158.796 309.426 158.967 308.683 159.42C307.811 159.95 307.187 160.779 306.982 161.703C306.93 161.916 306.785 162.096 306.588 162.181C304.426 163.13 304.682 165.233 304.819 165.857C305.067 167.028 305.81 167.986 306.486 167.986C306.605 167.986 306.657 167.986 306.674 167.986C306.674 167.986 306.708 167.986 306.725 167.986C306.725 167.986 306.742 167.986 306.751 167.986C306.828 167.986 306.905 167.986 306.964 167.986C307.204 167.986 307.64 167.986 308.409 167.986C308.794 167.986 309.102 168.293 309.102 168.678C309.102 169.063 308.794 169.37 308.409 169.37C307.093 169.37 306.759 169.37 306.708 169.37C306.708 169.37 306.674 169.37 306.648 169.37C306.648 169.37 306.631 169.37 306.623 169.37C306.58 169.37 306.537 169.37 306.486 169.37C305.127 169.37 303.853 168.02 303.46 166.148C303.109 164.489 303.511 162.216 305.725 161.07L305.716 161.053ZM320.343 169.131C320.343 169.131 320.3 169.088 320.283 169.063C320.3 169.088 320.317 169.114 320.343 169.131ZM320.266 169.029C320.266 169.029 320.231 168.969 320.214 168.943C320.231 168.977 320.249 169.003 320.266 169.029ZM320.206 168.9C320.206 168.9 320.18 168.84 320.18 168.806C320.18 168.84 320.197 168.866 320.206 168.9Z" fill="white"/>
    <path d="M316.915 166.148C317.291 166.148 317.607 166.455 317.607 166.84V170.003L320.761 172.149C321.069 171.935 321.454 171.807 321.856 171.807C322.916 171.807 323.779 172.67 323.779 173.73C323.779 174.79 322.916 175.653 321.856 175.653C320.796 175.653 319.932 174.79 319.932 173.73C319.932 173.576 319.949 173.431 319.984 173.286L316.53 170.935C316.342 170.807 316.231 170.593 316.231 170.362V166.832C316.222 166.447 316.53 166.139 316.906 166.139L316.915 166.148Z" fill="white"/>
    <path d="M313.504 174.123V166.832C313.504 166.447 313.812 166.139 314.196 166.139C314.581 166.139 314.889 166.447 314.889 166.832V174.123C315.607 174.405 316.128 175.098 316.128 175.918C316.128 176.978 315.265 177.842 314.205 177.842C313.145 177.842 312.281 176.978 312.281 175.918C312.281 175.098 312.794 174.397 313.521 174.123H313.504Z" fill="white"/>
    <path d="M306.477 171.798C306.888 171.798 307.264 171.926 307.571 172.14L310.717 169.994V166.832C310.726 166.447 311.033 166.139 311.418 166.139C311.803 166.139 312.111 166.447 312.111 166.832V170.362C312.102 170.593 311.991 170.807 311.803 170.935L308.349 173.286C308.383 173.431 308.401 173.576 308.401 173.73C308.401 174.79 307.537 175.653 306.477 175.653C305.417 175.653 304.554 174.79 304.554 173.73C304.554 172.67 305.417 171.807 306.477 171.807V171.798Z" fill="white"/>
  </g>
  <rect width="29.1937" height="29.1937" rx="4" transform="matrix(-1 0 0 1 319.194 156)" fill="#003D8F"/>
  <path d="M296.716 165.053C297.075 163.907 297.879 162.89 298.956 162.232C299.845 161.693 300.82 161.446 301.709 161.531C302.88 159.625 305.504 159.146 307.59 159.548C310.342 160.078 312.163 161.916 312.223 164.241C312.223 164.326 312.223 164.395 312.223 164.446C312.36 164.506 312.531 164.591 312.736 164.745C314.839 166.327 315.181 168.934 314.582 170.823C314.095 172.353 313.078 173.319 311.915 173.353C311.898 173.353 311.881 173.353 311.864 173.353C311.83 173.353 311.787 173.353 311.744 173.353C311.685 173.353 311.505 173.353 310.975 173.353C310.59 173.353 310.283 173.046 310.283 172.661C310.283 172.276 310.59 171.969 310.975 171.969C311.42 171.969 311.642 171.969 311.753 171.969C311.796 171.969 311.83 171.969 311.873 171.969H311.89C312.428 171.951 312.992 171.327 313.283 170.404C313.736 168.977 313.488 167.019 311.924 165.848C311.77 165.737 311.685 165.703 311.59 165.668C310.89 165.403 310.872 164.882 310.855 164.275C310.804 162.275 308.932 161.206 307.342 160.907C305.555 160.565 303.393 161.027 302.734 162.574C302.598 162.89 302.256 163.053 301.931 162.967C301.273 162.796 300.426 162.967 299.683 163.42C298.811 163.95 298.187 164.779 297.982 165.703C297.93 165.916 297.785 166.096 297.588 166.181C295.426 167.13 295.682 169.233 295.819 169.857C296.067 171.028 296.81 171.986 297.486 171.986C297.605 171.986 297.657 171.986 297.674 171.986C297.674 171.986 297.708 171.986 297.725 171.986C297.725 171.986 297.742 171.986 297.751 171.986C297.828 171.986 297.905 171.986 297.964 171.986C298.204 171.986 298.64 171.986 299.409 171.986C299.794 171.986 300.102 172.293 300.102 172.678C300.102 173.063 299.794 173.37 299.409 173.37C298.093 173.37 297.759 173.37 297.708 173.37C297.708 173.37 297.674 173.37 297.648 173.37C297.648 173.37 297.631 173.37 297.623 173.37C297.58 173.37 297.537 173.37 297.486 173.37C296.127 173.37 294.853 172.02 294.46 170.148C294.109 168.489 294.511 166.216 296.725 165.07L296.716 165.053ZM311.343 173.131C311.343 173.131 311.3 173.088 311.283 173.063C311.3 173.088 311.317 173.114 311.343 173.131ZM311.266 173.029C311.266 173.029 311.231 172.969 311.214 172.943C311.231 172.977 311.249 173.003 311.266 173.029ZM311.206 172.9C311.206 172.9 311.18 172.84 311.18 172.806C311.18 172.84 311.197 172.866 311.206 172.9Z" fill="white"/>
  <path d="M307.915 170.148C308.291 170.148 308.607 170.455 308.607 170.84V174.003L311.761 176.149C312.069 175.935 312.454 175.807 312.856 175.807C313.916 175.807 314.779 176.67 314.779 177.73C314.779 178.79 313.916 179.653 312.856 179.653C311.796 179.653 310.932 178.79 310.932 177.73C310.932 177.576 310.949 177.431 310.984 177.286L307.53 174.935C307.342 174.807 307.231 174.593 307.231 174.362V170.832C307.222 170.447 307.53 170.139 307.906 170.139L307.915 170.148Z" fill="white"/>
  <path d="M304.504 178.123V170.832C304.504 170.447 304.812 170.139 305.196 170.139C305.581 170.139 305.889 170.447 305.889 170.832V178.123C306.607 178.405 307.128 179.098 307.128 179.918C307.128 180.978 306.265 181.842 305.205 181.842C304.145 181.842 303.281 180.978 303.281 179.918C303.281 179.098 303.794 178.397 304.521 178.123H304.504Z" fill="white"/>
  <path d="M297.477 175.798C297.888 175.798 298.264 175.926 298.571 176.14L301.717 173.994V170.832C301.726 170.447 302.033 170.139 302.418 170.139C302.803 170.139 303.111 170.447 303.111 170.832V174.362C303.102 174.593 302.991 174.807 302.803 174.935L299.349 177.286C299.383 177.431 299.401 177.576 299.401 177.73C299.401 178.79 298.537 179.653 297.477 179.653C296.417 179.653 295.554 178.79 295.554 177.73C295.554 176.67 296.417 175.807 297.477 175.807V175.798Z" fill="white"/>
  <path d="M385.306 127.424L388.918 121.996V107.465C388.918 107.465 400.376 105.39 409.676 105.39C421.144 105.39 430.434 114.679 430.434 126.147C430.434 137.616 421.144 146.905 409.676 146.905C400.387 146.905 392.519 140.792 389.873 132.375H387.953C386.188 132.375 384.766 130.953 384.766 129.188C384.766 128.555 384.953 127.943 385.306 127.424Z" fill="#FFD176"/>
  <path d="M368.16 182.194H393.319L399.992 163.854C401.03 161 403.262 158.748 406.105 157.679L432.022 147.964C433.89 147.258 435.872 146.905 437.865 146.905C445.089 146.905 451.482 151.565 453.703 158.436L479.443 238.24H430.454L413.848 213.331L368.181 201.914V182.194H368.16Z" fill="#001B41"/>
  <path d="M428.358 171.804L444.435 221.634H436.91" stroke="#1474C4" stroke-linecap="round" stroke-linejoin="round"/>
  <path d="M430.434 238.24V387.697L422.13 396H461.57C466.158 396 469.874 392.284 469.874 387.697V238.24H430.434Z" fill="#1474C4"/>
  <path d="M409.676 130.299L426.282 113.693" stroke="#FFAA00" stroke-width="8" stroke-miterlimit="10" stroke-linecap="round"/>
  <path d="M459.152 324.385L430.434 238.24H479.422L527.684 387.863C528.982 391.879 525.982 396 521.758 396H471.939L480.242 387.697L459.142 324.385" fill="#95CAEB"/>
  <path d="M434.834 221.634L441.062 238.24H401.373L408.275 224.436C410.33 220.316 414.865 218.043 419.39 218.863L434.824 221.634H434.834Z" fill="#FFD176"/>
  <path d="M527.695 387.863C528.992 391.879 525.993 396 521.768 396H471.949L480.253 387.697H527.632L527.684 387.863H527.695Z" fill="#1474C4"/>
  <path d="M412.447 211.255L402.753 196.724" stroke="#1474C4" stroke-linecap="round" stroke-linejoin="round"/>
  <path d="M434.585 109.541V130.299H430.434C421.259 130.299 413.827 122.868 413.827 113.693V109.541H388.918C379.743 109.541 372.312 102.11 372.312 92.9348H417.979C427.154 92.9348 434.585 100.366 434.585 109.541Z" fill="#1474C4"/>
  <path d="M311.335 175.966H338.061C342.669 175.966 346.686 178.478 348.834 182.194H368.16V201.914L348.648 197.036L340.106 198.457C332.519 199.724 325.606 193.87 325.606 186.169V184.269L310.764 180.564C309.727 180.305 309 179.371 309 178.302C309 177.015 310.048 175.966 311.335 175.966Z" fill="#FFD176"/>
  <defs>
    <clipPath id="clip0_102_246">
      <rect width="31" height="9" fill="white" transform="translate(64 90)"/>
    </clipPath>
  </defs>
</svg>
