<svg id="ICON" xmlns="http://www.w3.org/2000/svg" viewBox="0 0 32 32"><title>phone</title><path id="phone" d="M25.44,2a2.72,2.72,0,0,1,1.86.52l.62.59c1,.95,2.13,2,2.09,3.09a3.85,3.85,0,0,1-1.73,2.46c-1.46,1.17-2.61,1.77-3.42,1.77s-1.41-.59-2.36-1.55l-.33-.34a2.22,2.22,0,0,0-1.61-.64c-1.06,0-3,.53-7.57,5.09-3.15,3.14-6.5,7-4.49,9.14l0,0,0,0,.34.32c1.69,1.67,2.46,2.43-.22,5.77C7.74,29.42,6.88,30,6.13,30c-1,0-2.09-1.11-3-2.09l0,0-.56-.58c-1.58-1.58.22-9.2,7.9-16.88C17.06,3.77,23,2,25.44,2m0-2C22,0,15.65,2.36,9,9,.86,17.14-1.7,25.92,1.1,28.71l.56.58C2.8,30.5,4.23,32,6.13,32h0c1.41,0,2.75-.81,4.09-2.48,3.54-4.4,2.26-6.28.06-8.44L10,20.76s-.72-1.19,4.45-6.36c4.07-4.06,5.66-4.5,6.16-4.5.14,0,.18,0,.2.06l.32.32c1,1.06,2.11,2.15,3.78,2.15,1.31,0,2.8-.7,4.67-2.21C31.14,8.93,32,7.64,32,6.28c.09-2-1.46-3.44-2.7-4.61-.2-.2-.4-.38-.58-.57A4.54,4.54,0,0,0,25.44,0Z" style="fill:#FFFFFF"/></svg>