<?xml version="1.0" encoding="UTF-8"?>
<svg width="59px" height="45px" viewBox="0 0 59 45" version="1.1" xmlns="http://www.w3.org/2000/svg"
>
    <title>quote-sign</title>
    <g id="video-modules" stroke="none" stroke-width="1" fill="none" fill-rule="evenodd">
        <g id="03_video-module-&quot;Media/Text&quot;" transform="translate(-142.000000, -1000.000000)" fill="#06BADF"
            fill-rule="nonzero">
            <g id="video-module-adaptions" transform="translate(-121.000000, 794.000000)">
                <g id="quote" transform="translate(0.000000, 77.000000)">
                    <path
                        d="M276,173.3 C282.6,173.3 288.6,168.35 288.6,160.85 C288.6,154.7 284.85,150.8 280.05,149.15 C281.55,144.5 287.25,137.6 289.8,135.35 L281.55,129.2 C271.8,135.65 263.25,146.9 263.25,158.9 C263.25,168.05 269.1,173.3 276,173.3 Z M307.85,173.3 C314.45,173.3 320.45,168.35 320.45,160.85 C320.45,154.7 316.7,150.8 311.9,149.15 C313.55,144.35 318.95,137.75 321.65,135.35 L313.4,129.2 C303.8,135.5 295.1,147.05 295.1,158.9 C295.1,168.05 300.8,173.3 307.85,173.3 Z"
                        id="quote-sign"></path>
                </g>
            </g>
        </g>
    </g>
</svg>