<svg id="ICON" xmlns="http://www.w3.org/2000/svg" viewBox="0 0 32 32">
    <title>ic-s-light-round-rescue-ring</title>
    <path id="ic-s-light-round-rescue-ring"
        d="M16,0A15.884,15.884,0,0,0,8.047,2.136l-.023-.028-.106.107a16.1,16.1,0,0,0-5.7,5.7l-.107.106.028.023A15.988,15.988,0,1,0,16,0Zm8.354,27.208-3.178-3.851.026-.026A9.078,9.078,0,0,0,23.331,21.2l.026-.026,3.851,3.178A14.086,14.086,0,0,1,24.354,27.208ZM10.752,23.3c.026.018.047.042.072.06L7.646,27.208c-.05-.037-.1-.073-.148-.111a13.863,13.863,0,0,1-2.6-2.6c-.038-.049-.074-.1-.111-.148l3.851-3.178c.018.025.042.046.06.072a9.143,9.143,0,0,0,.927,1.1l.019.019A9.143,9.143,0,0,0,10.752,23.3ZM8.643,10.824,4.792,7.646A14.086,14.086,0,0,1,7.646,4.792l3.178,3.851-.026.026A9.078,9.078,0,0,0,8.669,10.8ZM9,16a7,7,0,1,1,7,7A7.009,7.009,0,0,1,9,16ZM21.2,8.669l-.026-.026,3.178-3.851a14.086,14.086,0,0,1,2.854,2.854l-3.851,3.178-.026-.026A9.078,9.078,0,0,0,21.2,8.669Zm3.131,10.719a8.938,8.938,0,0,0,0-6.776l3.975-3.28a13.985,13.985,0,0,1,0,13.336Zm-1.665-15.7-3.28,3.975a8.938,8.938,0,0,0-6.776,0L9.332,3.692a13.985,13.985,0,0,1,13.336,0ZM3.692,9.332l3.975,3.28a8.938,8.938,0,0,0,0,6.776l-3.975,3.28a13.985,13.985,0,0,1,0-13.336Zm5.64,18.976,3.28-3.975a8.938,8.938,0,0,0,6.776,0l3.28,3.975a13.985,13.985,0,0,1-13.336,0Z"
        style="fill:#fff" />
</svg>