<svg xmlns="http://www.w3.org/2000/svg" id="ICON" viewBox="0 0 32 32"><title>ic-s-individual-light-star</title><path id="ic-s-individual-light-star" d="M25.271,31.266a1,1,0,0,1-.527-.15L16,25.7,7.256,31.116a1,1,0,0,1-1.5-1.091l2.468-9.969L.354,13.4a1,1,0,0,1,.577-1.762L11.2,10.917l3.878-9.559a1,1,0,0,1,1.854,0l3.878,9.559,10.264.717a1,1,0,0,1,.577,1.762l-7.873,6.66,2.468,9.969a1,1,0,0,1-.97,1.241ZM16,23.527a1,1,0,0,1,.526.15l7.184,4.447-2.027-8.19a1,1,0,0,1,.325-1l6.468-5.472-8.433-.589a1,1,0,0,1-.857-.622L16,4.395l-3.186,7.852a1,1,0,0,1-.857.622l-8.433.589L9.992,18.93a1,1,0,0,1,.325,1L8.29,28.124l7.184-4.447A1,1,0,0,1,16,23.527Z" style="fill:#ffdd00"/><deepl-alert xmlns=""/><deepl-alert xmlns=""/><deepl-alert xmlns=""/><deepl-alert xmlns=""/></svg>