<svg width="18" height="18" viewBox="0 0 18 18" fill="none" xmlns="http://www.w3.org/2000/svg">
  <g clip-path="url(#clip0_5154_3796)">
    <path
      d="M15.5 10.5V15.25C15.5 16.215 14.715 17 13.75 17H2.75C1.785 17 1 16.215 1 15.25V4.25C1 3.285 1.785 2.5 2.75 2.5H7.5C7.914 2.5 8.25 2.836 8.25 3.25C8.25 3.664 7.914 4 7.5 4H2.75C2.6125 4 2.5 4.112 2.5 4.25V15.25C2.5 15.388 2.6125 15.5 2.75 15.5H13.75C13.8875 15.5 14 15.388 14 15.25V10.5C14 10.086 14.336 9.75 14.75 9.75C15.164 9.75 15.5 10.086 15.5 10.5ZM16.25 1H11C10.586 1 10.25 1.336 10.25 1.75C10.25 2.164 10.586 2.5 11 2.5H14.4395L6.97 9.9695C6.677 10.2625 6.677 10.737 6.97 11.03C7.1165 11.1765 7.3085 11.2495 7.5005 11.2495C7.6925 11.2495 7.8845 11.1765 8.031 11.03L15.5 3.5605V7C15.5 7.414 15.836 7.75 16.25 7.75C16.664 7.75 17 7.414 17 7V1.75C17 1.336 16.664 1 16.25 1Z"
      fill="black" />
  </g>
  <defs>
    <clipPath id="clip0_5154_3796">
      <rect width="16" height="16" fill="white" transform="translate(1 1)" />
    </clipPath>
  </defs>
</svg>