<svg width="13" height="11" viewBox="0 0 13 11" fill="none" xmlns="http://www.w3.org/2000/svg">
    <path
        d="M12.2166 4.94979L8.26272 0.996346C7.959 0.692624 7.46667 0.692624 7.16294 0.996346C6.85922 1.30007 6.85922 1.79279 7.16294 2.09651L9.78911 4.72229H0.777778C0.348444 4.72229 0 5.07074 0 5.50007C0 5.9294 0.348444 6.27785 0.777778 6.27785H9.78911L7.16294 8.90362C6.85922 9.20735 6.85922 9.69968 7.16294 10.0038C7.315 10.1555 7.51372 10.2317 7.71283 10.2317C7.91194 10.2317 8.11067 10.1558 8.26272 10.0038L12.2166 6.04996C12.3624 5.90412 12.4444 5.70618 12.4444 5.50007C12.4444 5.29396 12.3624 5.09601 12.2166 4.95018V4.94979Z"
        fill="#003D8F" />
</svg>