<svg id="ICON" xmlns="http://www.w3.org/2000/svg" viewBox="0 0 32 32">
  <title>chat</title>
  <path id="chat"
    d="M4,32a.84.84,0,0,1-.38-.08A1,1,0,0,1,3,31V28H1a1,1,0,0,1-1-1V20a3,3,0,0,1,3-3H25a3,3,0,0,1,3,3v5a3,3,0,0,1-3,3H8.41l-3.7,3.71A1,1,0,0,1,4,32ZM2,26H4a1,1,0,0,1,1,1v1.59l2.29-2.3A1,1,0,0,1,8,26H25a1,1,0,0,0,1-1V20a1,1,0,0,0-1-1H3a1,1,0,0,0-1,1ZM28,15a1,1,0,0,1-.71-.29L23.59,11H7A3,3,0,0,1,4,8V3A3,3,0,0,1,7,0H29a3,3,0,0,1,3,3v7a1,1,0,0,1-1,1H29v3a1,1,0,0,1-.62.92A.84.84,0,0,1,28,15ZM7,2A1,1,0,0,0,6,3V8A1,1,0,0,0,7,9H24a1,1,0,0,1,.71.29L27,11.59V10a1,1,0,0,1,1-1h2V3a1,1,0,0,0-1-1Z"
    style="fill:#ffffff" />
</svg>