<svg id="ICON" xmlns="http://www.w3.org/2000/svg" viewBox="0 0 24 24">
  <defs>
    <style>
      .cls-1 {
        fill: #001b41;
      }
    </style>
  </defs>
  <path id="ic-s24-individual-social-media-twitter" class="cls-1" d="M8.29,20.127A11.6,11.6,0,0,0,19.965,8.452c0-.177,0-.354-.012-.53A8.339,8.339,0,0,0,22,5.8a8.165,8.165,0,0,1-2.356.646,4.12,4.12,0,0,0,1.8-2.27,8.221,8.221,0,0,1-2.606,1,4.105,4.105,0,0,0-7.1,2.807,4.055,4.055,0,0,0,.107.935A11.649,11.649,0,0,1,3.392,4.624,4.106,4.106,0,0,0,4.662,10.1,4.058,4.058,0,0,1,2.8,9.589c0,.017,0,.034,0,.052A4.105,4.105,0,0,0,6.1,13.664a4.1,4.1,0,0,1-1.853.07,4.106,4.106,0,0,0,3.833,2.85,8.233,8.233,0,0,1-5.1,1.757A8.33,8.33,0,0,1,2,18.284a11.614,11.614,0,0,0,6.29,1.843"/>
</svg>
