<svg id="ICON" xmlns="http://www.w3.org/2000/svg" viewBox="0 0 24 24">
  <defs>
    <style>
      .cls-1 {
        fill: #fff;
        opacity: 0;
      }

      .cls-2 {
        fill: #001b41;
      }
    </style>
  </defs>
  <g id="ic-s24-regular-star-outline">
    <path id="background" class="cls-1" d="M17.315,20.358a1,1,0,0,1-.525-.149L12,17.249l-4.79,2.96a1,1,0,0,1-1.5-1.088l1.336-5.47-4.295-3.64a1,1,0,0,1,.572-1.76l5.613-.42,2.135-5.21a1,1,0,0,1,1.852,0l2.135,5.21,5.613.42a1,1,0,0,1,.572,1.76l-4.295,3.64,1.336,5.47a1,1,0,0,1-.972,1.237Z"/>
    <path id="content" class="cls-2" d="M17.315,20.358a1,1,0,0,1-.525-.149L12,17.249l-4.79,2.96a1,1,0,0,1-1.5-1.088l1.336-5.47-4.295-3.64a1,1,0,0,1,.572-1.76l5.613-.42,2.135-5.21a1,1,0,0,1,1.852,0l2.135,5.21,5.613.42a1,1,0,0,1,.572,1.76l-4.295,3.64,1.336,5.47a1,1,0,0,1-.972,1.237ZM12,15.073a1,1,0,0,1,.525.149l3.24,2-.9-3.7a1,1,0,0,1,.326-1l2.9-2.462-3.8-.284a1,1,0,0,1-.852-.618L12,5.638,10.557,9.161a1,1,0,0,1-.852.618l-3.8.284,2.9,2.462a1,1,0,0,1,.326,1l-.9,3.7,3.24-2A1,1,0,0,1,12,15.073Z"/>
  </g>
</svg>
