<svg id="ICON" xmlns="http://www.w3.org/2000/svg" viewBox="0 0 24 24">
  <defs>
    <style>
      .cls-1 {
        fill: #fff;
        opacity: 0;
      }

      .cls-2 {
        fill: #001b41;
      }
    </style>
  </defs>
  <g id="ic-s24-regular-crown">
    <path id="background" class="cls-1" d="M20,6a1.992,1.992,0,0,0-1.815,2.83l-2.909,1.818-2.109-3.03a2,2,0,1,0-2.334,0l-2.109,3.03L5.815,8.83A2,2,0,1,0,4,10c.036,0,.069-.009.1-.01l1.94,6.3A1,1,0,0,0,7,17H17a1,1,0,0,0,.956-.706l1.94-6.3c.035,0,.068.01.1.01a2,2,0,0,0,0-4Z"/>
    <path id="content" class="cls-2" d="M20,6a1.992,1.992,0,0,0-1.815,2.83l-2.909,1.818-2.109-3.03a2,2,0,1,0-2.334,0l-2.109,3.03L5.815,8.83A2,2,0,1,0,4,10c.036,0,.069-.009.1-.01l1.94,6.3A1,1,0,0,0,7,17H17a1,1,0,0,0,.956-.706l1.94-6.3c.035,0,.068.01.1.01a2,2,0,0,0,0-4Zm-3.738,9H7.738l-.994-3.23L8.47,12.848a1,1,0,0,0,1.35-.277L12,9.442l2.18,3.129a1,1,0,0,0,1.35.277l1.726-1.078ZM18,19a1,1,0,0,1-1,1H7a1,1,0,0,1,0-2H17A1,1,0,0,1,18,19Z"/>
  </g>
</svg>
