<svg width="24" height="25" viewBox="0 0 24 25" fill="none" xmlns="http://www.w3.org/2000/svg">
    <g clip-path="url(#clip0_4809_3014)">
        <path opacity="0.4"
            d="M12 24.5C18.6274 24.5 24 19.1274 24 12.5C24 5.87258 18.6274 0.5 12 0.5C5.37258 0.5 0 5.87258 0 12.5C0 19.1274 5.37258 24.5 12 24.5Z"
            fill="#3196D6" />
        <path
            d="M10.5 18H10.432C10.2657 17.9886 10.1047 17.9358 9.96398 17.8464C9.82321 17.757 9.70703 17.6338 9.62604 17.488L7.12604 12.988C7.06221 12.8732 7.02162 12.747 7.00658 12.6165C6.99154 12.4861 7.00234 12.3539 7.03837 12.2276C7.11114 11.9726 7.28224 11.7569 7.51404 11.628C7.74584 11.4991 8.01934 11.4676 8.27439 11.5403C8.52944 11.6131 8.74514 11.7842 8.87404 12.016L10.625 15.169L15.7 8.4C15.8592 8.18783 16.0961 8.04756 16.3586 8.01005C16.4886 7.99148 16.621 7.99869 16.7482 8.03129C16.8754 8.06388 16.995 8.12121 17.1 8.2C17.2051 8.27879 17.2936 8.37751 17.3605 8.49051C17.4274 8.60351 17.4714 8.72858 17.49 8.85858C17.5086 8.98858 17.5013 9.12097 17.4688 9.24818C17.4362 9.37539 17.3788 9.49494 17.3 9.6L11.3 17.6C11.2069 17.7242 11.0861 17.825 10.9472 17.8944C10.8084 17.9639 10.6553 18 10.5 18Z"
            fill="#003D8F" />
    </g>
    <defs>
        <clipPath id="clip0_4809_3014">
            <rect width="24" height="24" fill="white" transform="translate(0 0.5)" />
        </clipPath>
    </defs>
</svg>