<svg id="ICON" xmlns="http://www.w3.org/2000/svg" viewBox="0 0 24 24">
  <defs>
    <style>
      .cls-1 {
        fill: #fff;
        opacity: 0;
      }

      .cls-2 {
        fill: #001b41;
      }
    </style>
  </defs>
  <g id="ic-s24-individual-social-media-linkedin">
    <path id="background" class="cls-1" d="M19.591,3H4.345A1.3,1.3,0,0,0,3,4.286V19.714A1.3,1.3,0,0,0,4.345,21h15.31A1.344,1.344,0,0,0,21,19.714V4.286A1.4,1.4,0,0,0,19.591,3Z"/>
    <path id="content" class="cls-2" d="M19.591,3H4.345A1.3,1.3,0,0,0,3,4.286V19.714A1.3,1.3,0,0,0,4.345,21h15.31A1.344,1.344,0,0,0,21,19.714V4.286A1.4,1.4,0,0,0,19.591,3ZM8.317,18.364H5.69V9.75H8.381v8.614ZM6.972,8.593A1.543,1.543,0,1,1,8.509,7.05,1.52,1.52,0,0,1,6.972,8.593ZM18.31,18.364H15.683V14.186c0-.965,0-2.25-1.409-2.25s-1.6,1.093-1.6,2.185v4.243H10.046V9.75h2.563v1.157h.064a2.9,2.9,0,0,1,2.5-1.414c2.69,0,3.2,1.8,3.2,4.114v4.757Z"/>
  </g>
</svg>
