<svg width="14" height="14" viewBox="0 0 36 36" fill="none" xmlns="http://www.w3.org/2000/svg">
    <g clip-path="url(#clip0_41_6)">
        <path
            d="M33.561 17.1061L22.894 6.43913C22.308 5.85413 21.359 5.85313 20.773 6.43913C20.187 7.02513 20.187 7.97413 20.773 8.56013L28.879 16.6661H3.5C2.672 16.6661 2 17.3381 2 18.1661C2 18.9941 2.672 19.6661 3.5 19.6661H28.879L20.773 27.7721C20.187 28.3581 20.187 29.3071 20.773 29.8931C21.066 30.1861 21.45 30.3321 21.834 30.3321C22.218 30.3321 22.602 30.1861 22.895 29.8931L33.562 19.2261C33.843 18.9451 34.001 18.5631 34.001 18.1651C34.001 17.7671 33.843 17.3861 33.562 17.1041L33.561 17.1061Z"
            fill="black" />
    </g>
    <defs>
        <clipPath id="clip0_41_6">
            <rect width="32" height="24.333" fill="none" transform="translate(2 6)" />
        </clipPath>
    </defs>
</svg>