<svg id="ICON" xmlns="http://www.w3.org/2000/svg" viewBox="0 0 24 24">
  <defs>
    <style>
      .cls-1 {
        fill: #001b41;
      }
    </style>
  </defs>
  <path id="ic-s24-regular-registration-logout" class="cls-1" d="M21.707,12.707l-3,3a1,1,0,0,1-1.414-1.414L18.586,13H10a1,1,0,0,1,0-2h8.586L17.293,9.707a1,1,0,0,1,1.414-1.414l3,3A1,1,0,0,1,21.707,12.707ZM17,18.222A7.884,7.884,0,0,1,12,20,8,8,0,0,1,12,4a7.884,7.884,0,0,1,5,1.778,1,1,0,0,0,1.256-1.556A9.858,9.858,0,0,0,12,2a10,10,0,0,0,0,20,9.858,9.858,0,0,0,6.253-2.222A1,1,0,0,0,17,18.222Z"/>
</svg>
