<svg id="ICON" xmlns="http://www.w3.org/2000/svg" viewBox="0 0 24 24">
  <defs>
    <style>
      .cls-1 {
        fill: #fff;
        opacity: 0;
      }

      .cls-2 {
        fill: #001b41;
      }
    </style>
  </defs>
  <g id="ic-s24-regular-slider-vertical">
    <path id="background" class="cls-1" d="M13.074,16a1,1,0,1,0-1,1A1,1,0,0,0,13.074,16ZM7,8A1,1,0,1,0,6,9,1,1,0,0,0,7,8Zm12,2a1,1,0,1,0-1,1A1,1,0,0,0,19,10Z"/>
    <path id="content" class="cls-2" d="M7,13v7a1,1,0,0,1-2,0V13a1,1,0,0,1,2,0Zm11,1a1,1,0,0,0-1,1v5a1,1,0,0,0,2,0V15A1,1,0,0,0,18,14Zm-6-2a1,1,0,0,0,1-1V4a1,1,0,0,0-2,0v7A1,1,0,0,0,12,12Zm3.074,4A2.988,2.988,0,0,1,13,18.839V20a1,1,0,0,1-2,0V18.793A3,3,0,1,1,15.074,16Zm-2,0a1,1,0,1,0-1,1A1,1,0,0,0,13.074,16ZM9,8A3,3,0,1,1,5,5.184V4A1,1,0,0,1,7,4V5.184A2.99,2.99,0,0,1,9,8ZM7,8A1,1,0,1,0,6,9,1,1,0,0,0,7,8Zm14,2a3,3,0,1,1-4-2.816V4a1,1,0,0,1,2,0V7.184A2.99,2.99,0,0,1,21,10Zm-2,0a1,1,0,1,0-1,1A1,1,0,0,0,19,10Z"/>
  </g>
</svg>
