<svg id="ICON" xmlns="http://www.w3.org/2000/svg" viewBox="0 0 24 24">
  <defs>
    <style>
      .cls-1 {
        fill: #001b41;
      }
    </style>
  </defs>
  <path id="ic-s24-regular-cart" class="cls-1" d="M18.75,16.5a2.25,2.25,0,0,0-1.869,1H9.369a2.244,2.244,0,0,0-.214-.262l1-2.238H19a1,1,0,0,0,.984-.821l1-5.5a1,1,0,0,0-.767-1.155l-9-2a1,1,0,0,0-.434,1.952l8.061,1.792L18.166,13H10.21L6.944,3.669A1,1,0,0,0,6,3H4A1,1,0,0,0,4,5H5.291l3.134,8.956-1.14,2.566A2.244,2.244,0,1,0,9.612,19.5h7.026a2.246,2.246,0,1,0,2.112-3Z"/>
</svg>
