<svg id="ICON" xmlns="http://www.w3.org/2000/svg" viewBox="0 0 24 24">
  <defs>
    <style>
      .cls-1 {
        fill: #fff;
        opacity: 0;
      }

      .cls-2 {
        fill: #001b41;
      }
    </style>
  </defs>
  <g id="ic-s24-individual-social-media-facebook">
    <path id="background" class="cls-1" d="M22,12A10,10,0,1,1,12,2,10,10,0,0,1,22,12Z"/>
    <path id="content" class="cls-2" d="M12,2a10,10,0,0,0-1.563,19.878V14.891H7.9V12h2.539V9.8a3.53,3.53,0,0,1,3.778-3.891,15.316,15.316,0,0,1,2.238.2v2.46H15.192a1.446,1.446,0,0,0-1.63,1.562V12h2.774l-.443,2.891H13.562v6.987A10,10,0,0,0,12,2Z"/>
  </g>
</svg>
