<svg width="14" height="14" viewBox="0 0 14 14" fill="none" xmlns="http://www.w3.org/2000/svg">
    <g clip-path="url(#clip0_780_4927)">
        <path d="M12.9939 6.51458L9.04007 2.56114C8.73634 2.25741 8.24401 2.25741 7.94029 2.56114C7.63657 2.86486 7.63657 3.35758 7.94029 3.6613L10.5665 6.28708H1.55512C1.12579 6.28708 0.777344 6.63552 0.777344 7.06486C0.777344 7.49419 1.12579 7.84264 1.55512 7.84264H10.5665L7.94029 10.4684C7.63657 10.7721 7.63657 11.2645 7.94029 11.5686C8.09234 11.7202 8.29107 11.7965 8.49018 11.7965C8.68929 11.7965 8.88801 11.7206 9.04007 11.5686L12.9939 7.61475C13.1397 7.46891 13.2218 7.27097 13.2218 7.06486C13.2218 6.85875 13.1397 6.6608 12.9939 6.51497V6.51458Z" fill="#0B2A63"/>
    </g>
    <defs>
        <clipPath id="clip0_780_4927">
            <rect width="12.4444" height="9.46283" fill="#0B2A63" transform="translate(0.777344 2.33334)"/>
        </clipPath>
    </defs>
</svg>
