<svg id="ICON" xmlns="http://www.w3.org/2000/svg" viewBox="0 0 24 24">
  <defs>
    <style>
      .cls-1 {
        fill: #fff;
        opacity: 0;
      }

      .cls-2 {
        fill: #001b41;
      }
    </style>
  </defs>
  <g id="ic-s24-regular-ram">
    <path id="background" class="cls-1" d="M4,14.5V9.236l.395-.789a1,1,0,0,0,0-.894L4,6.764V6H20v.764l-.395.789a1,1,0,0,0,0,.894L20,9.236V14.5Z"/>
    <path id="content" class="cls-2" d="M22,7V5a1,1,0,0,0-1-1H3A1,1,0,0,0,2,5V7a1,1,0,0,0,.1.447L2.382,8l-.277.553A1,1,0,0,0,2,9v6.5a1,1,0,0,0,1,1V19a1,1,0,0,0,2,0V16.5H7V19a1,1,0,0,0,2,0V16.5h2V19a1,1,0,0,0,2,0V16.5h2V19a1,1,0,0,0,2,0V16.5h2V19a1,1,0,0,0,2,0V16.5a1,1,0,0,0,1-1V9a1,1,0,0,0-.105-.447L21.618,8l.277-.553A1,1,0,0,0,22,7ZM4,14.5V9.236l.395-.789a1,1,0,0,0,0-.894L4,6.764V6H20v.764l-.395.789a1,1,0,0,0,0,.894L20,9.236V14.5ZM9,9v3a1,1,0,0,1-2,0V9A1,1,0,0,1,9,9Zm4,0v3a1,1,0,0,1-2,0V9a1,1,0,0,1,2,0Zm4,0v3a1,1,0,0,1-2,0V9a1,1,0,0,1,2,0Z"/>
  </g>
</svg>
