<svg id="ICON" xmlns="http://www.w3.org/2000/svg" viewBox="0 0 24 24">
  <defs>
    <style>
      .cls-1 {
        opacity: 0;
      }

      .cls-2 {
        fill: #fff;
      }

      .cls-3 {
        fill: #001b41;
      }
    </style>
  </defs>
  <g id="ic-s24-regular-circle-exclamation-mark">
    <g id="background" class="cls-1">
      <path class="cls-2" d="M12,22A10,10,0,1,1,22,12,10,10,0,0,1,12,22Z"/>
    </g>
    <path id="content" class="cls-3" d="M13.125,16A1.125,1.125,0,1,1,12,14.875,1.125,1.125,0,0,1,13.125,16ZM22,12A10,10,0,1,1,12,2,10.011,10.011,0,0,1,22,12Zm-2,0a8,8,0,1,0-8,8A8.009,8.009,0,0,0,20,12Zm-8,2a1,1,0,0,0,1-1V8a1,1,0,0,0-2,0v5A1,1,0,0,0,12,14Z"/>
  </g>
</svg>
