<svg id="ICON" xmlns="http://www.w3.org/2000/svg" viewBox="0 0 24 24">
  <defs>
    <style>
      .cls-1 {
        fill: #fff;
        opacity: 0;
      }

      .cls-2 {
        fill: #001b41;
      }
    </style>
  </defs>
  <g id="ic-s24-regular-trash-can">
    <path id="background" class="cls-1" d="M17,8H7L7.92,19h8.16Z"/>
    <path id="content" class="cls-2" d="M9,17V10a1,1,0,0,1,2,0v7a1,1,0,0,1-2,0Zm5,1a1,1,0,0,0,1-1V10a1,1,0,0,0-2,0v7A1,1,0,0,0,14,18ZM21,7a1,1,0,0,1-1,1H18.987c0,.029.012.054.01.083l-1,12A1,1,0,0,1,17,21H7a1,1,0,0,1-1-.917l-1-12c0-.029.01-.054.01-.083H4A1,1,0,0,1,4,6H7.588C7.844,4.908,8.5,3,10,3h4c1.5,0,2.156,1.908,2.412,3H20A1,1,0,0,1,21,7ZM9.671,6h4.658a3.456,3.456,0,0,0-.462-1H10.133A3.456,3.456,0,0,0,9.671,6ZM17,8H7L7.92,19h8.16Z"/>
  </g>
</svg>
