<svg id="ICON" xmlns="http://www.w3.org/2000/svg" viewBox="0 0 24 24">
  <defs>
    <style>
      .cls-1 {
        fill: #fff;
        opacity: 0;
      }

      .cls-2 {
        fill: #001b41;
      }
    </style>
  </defs>
  <g id="ic-s24-regular-pen">
    <path id="background" class="cls-1" d="M20.707,7.293l-4-4a1,1,0,0,0-1.414,0l-10,10a.972.972,0,0,0-.232.4l-.009,0-2,6A1,1,0,0,0,4,21a1.014,1.014,0,0,0,.316-.051l6-2,0-.01a.972.972,0,0,0,.4-.232l10-10A1,1,0,0,0,20.707,7.293Z"/>
    <path id="content" class="cls-2" d="M20.707,7.293l-4-4a1,1,0,0,0-1.414,0l-10,10a.972.972,0,0,0-.232.4l-.009,0-2,6A1,1,0,0,0,4,21a1.014,1.014,0,0,0,.316-.051l6-2,0-.01a.972.972,0,0,0,.4-.232l10-10A1,1,0,0,0,20.707,7.293ZM18.586,8,18,8.586,15.414,6,16,5.414ZM6.437,15.851l1.712,1.712-2.568.856ZM10,16.586,7.414,14,14,7.414,16.586,10Z"/>
  </g>
</svg>
