<svg id="ICON" xmlns="http://www.w3.org/2000/svg" viewBox="0 0 24 24">
  <defs>
    <style>
      .cls-1 {
        fill: #001b41;
      }
    </style>
  </defs>
  <path id="ic-s24-regular-cloud-upload" class="cls-1" d="M16.207,12.793a1,1,0,1,1-1.414,1.414L13,12.414V19a1,1,0,0,1-2,0V12.414L9.207,14.207a1,1,0,1,1-1.414-1.414l3.5-3.5a1,1,0,0,1,1.414,0Zm1.8-4.765a6.493,6.493,0,0,0-12.014,0,4.5,4.5,0,0,0-1.424,8.537,1,1,0,1,0,.86-1.805A2.5,2.5,0,0,1,6.478,10h0c.026,0,.139.017.165.018A1,1,0,0,0,7.67,9.29a4.494,4.494,0,0,1,8.66,0,1,1,0,0,0,1.025.729c.026,0,.12-.016.145-.019a2.5,2.5,0,0,1,1.071,4.76,1,1,0,1,0,.86,1.805,4.5,4.5,0,0,0-1.424-8.537Z"/>
</svg>
