<svg id="ICON" xmlns="http://www.w3.org/2000/svg" viewBox="0 0 24 24">
  <defs>
    <style>
      .cls-1 {
        fill: #001b41;
      }
    </style>
  </defs>
  <path id="ic-s24-regular-repeat-continuous-arrow" class="cls-1" d="M23.707,13.707l-2,2a1,1,0,0,1-1.414,0l-2-2a1,1,0,0,1,1.414-1.414l.253.253c.012-.182.04-.362.04-.546A8,8,0,0,0,7.528,5.366a1,1,0,0,1-1.12-1.658A10,10,0,0,1,22,12c0,.212-.033.421-.046.632l.339-.339a1,1,0,0,1,1.414,1.414Zm-7.235,4.927A8,8,0,0,1,4,12c0-.184.027-.364.04-.546l.253.253a1,1,0,1,0,1.414-1.414l-2-2a1,1,0,0,0-1.414,0l-2,2a1,1,0,0,0,1.414,1.414l.339-.339C2.033,11.579,2,11.787,2,12a10,10,0,0,0,15.592,8.292,1,1,0,0,0-1.12-1.658Z"/>
</svg>
