<svg id="ICON" xmlns="http://www.w3.org/2000/svg" viewBox="0 0 24 24">
  <defs>
    <style>
      .cls-1 {
        fill: #fff;
        opacity: 0;
      }

      .cls-2 {
        fill: #fff;
      }
    </style>
  </defs>
  <g id="ic-s24-regular-user">
    <path id="background" class="cls-1" d="M12,2C8.688,2,6.375,4.056,6.378,6.94a19.074,19.074,0,0,0,.06,2.6,8.969,8.969,0,0,0,2.229,5.3C3.875,17.014,4,17.935,4,18.25,4,20.093,6.914,22,12,22s8-1.907,8-3.75c0-.315.125-1.236-4.667-3.414a8.969,8.969,0,0,0,2.229-5.295A19.082,19.082,0,0,0,17.625,7c0-2.944-2.313-5-5.625-5Z" />
    <path id="content" class="cls-2" d="M12,4c2.2,0,3.625,1.178,3.625,3,0,.063,0,.127.009.19a21.6,21.6,0,0,1-.068,2.22,7.016,7.016,0,0,1-1.675,4.039,2,2,0,0,0,.614,3.207,18.09,18.09,0,0,1,3.312,1.81C17.263,19.017,15.484,20,12,20c-3.521,0-5.3-1-5.831-1.524a17.886,17.886,0,0,1,3.326-1.82,2,2,0,0,0,.614-3.207A7.016,7.016,0,0,1,8.434,9.411a19.674,19.674,0,0,1-.065-2.277h0c.006-.065.009-.13.009-.2a2.625,2.625,0,0,1,.763-1.93A3.988,3.988,0,0,1,12,4m0-2C8.688,2,6.375,4.056,6.378,6.94a19.074,19.074,0,0,0,.06,2.6,8.969,8.969,0,0,0,2.229,5.3C3.875,17.014,4,17.935,4,18.25,4,20.093,6.914,22,12,22s8-1.907,8-3.75c0-.315.125-1.236-4.667-3.414a8.969,8.969,0,0,0,2.229-5.295A19.082,19.082,0,0,0,17.625,7c0-2.944-2.313-5-5.625-5Z" />
  </g>
</svg>