<svg id="ICON" xmlns="http://www.w3.org/2000/svg" viewBox="0 0 24 24">
  <defs>
    <style>
      .cls-1 {
        fill: #fff;
        opacity: 0;
      }

      .cls-2 {
        fill: #001b41;
      }
    </style>
  </defs>
  <g id="ic-s24-regular-settings-gear">
    <path id="background" class="cls-1" d="M21.1,13.791l-1.179-.681a8.039,8.039,0,0,0,0-2.22l1.179-.681a1,1,0,0,0,.455-1.161A10.044,10.044,0,0,0,19.332,5.2,1,1,0,0,0,18.1,5.014l-1.177.68A8,8,0,0,0,15,4.583V3.223a1,1,0,0,0-.779-.975,10.119,10.119,0,0,0-4.442,0A1,1,0,0,0,9,3.223v1.36A8,8,0,0,0,7.078,5.694L5.9,5.014A1,1,0,0,0,4.668,5.2,10.044,10.044,0,0,0,2.443,9.048,1,1,0,0,0,2.9,10.209l1.179.681a8.039,8.039,0,0,0,0,2.22L2.9,13.791a1,1,0,0,0-.455,1.161A10.044,10.044,0,0,0,4.668,18.8a1,1,0,0,0,1.233.186l1.177-.68A8,8,0,0,0,9,19.417v1.36a1,1,0,0,0,.779.975,10.069,10.069,0,0,0,4.442,0A1,1,0,0,0,15,20.777v-1.36a8,8,0,0,0,1.922-1.111l1.177.68a1,1,0,0,0,1.233-.186,10.044,10.044,0,0,0,2.225-3.848A1,1,0,0,0,21.1,13.791ZM12,14a2,2,0,1,1,2-2A2,2,0,0,1,12,14Z"/>
    <path id="content" class="cls-2" d="M21.1,13.791l-1.179-.681a8.039,8.039,0,0,0,0-2.22l1.179-.681a1,1,0,0,0,.455-1.161A10.044,10.044,0,0,0,19.332,5.2,1,1,0,0,0,18.1,5.014l-1.177.68A8,8,0,0,0,15,4.583V3.223a1,1,0,0,0-.779-.975,10.119,10.119,0,0,0-4.442,0A1,1,0,0,0,9,3.223v1.36A8,8,0,0,0,7.078,5.694L5.9,5.014A1,1,0,0,0,4.668,5.2,10.044,10.044,0,0,0,2.443,9.048,1,1,0,0,0,2.9,10.209l1.179.681a8.039,8.039,0,0,0,0,2.22L2.9,13.791a1,1,0,0,0-.455,1.161A10.044,10.044,0,0,0,4.668,18.8a1,1,0,0,0,1.233.186l1.177-.68A8,8,0,0,0,9,19.417v1.36a1,1,0,0,0,.779.975,10.069,10.069,0,0,0,4.442,0A1,1,0,0,0,15,20.777v-1.36a8,8,0,0,0,1.922-1.111l1.177.68a1,1,0,0,0,1.233-.186,10.044,10.044,0,0,0,2.225-3.848A1,1,0,0,0,21.1,13.791Zm-3.264-3.183a6.061,6.061,0,0,1,0,2.784,1,1,0,0,0,.473,1.1l1.064.616a8.056,8.056,0,0,1-1,1.731L17.31,16.22a1,1,0,0,0-1.187.14,6.03,6.03,0,0,1-2.408,1.391A1,1,0,0,0,13,18.71v1.228a8.161,8.161,0,0,1-2,0V18.71a1,1,0,0,0-.715-.959A6.03,6.03,0,0,1,7.877,16.36a1,1,0,0,0-1.187-.14l-1.064.615a8.056,8.056,0,0,1-1-1.731l1.064-.616a1,1,0,0,0,.473-1.1,6.061,6.061,0,0,1,0-2.784,1,1,0,0,0-.473-1.1L4.625,8.9a8.056,8.056,0,0,1,1-1.731L6.69,7.78a1,1,0,0,0,1.187-.14,6.03,6.03,0,0,1,2.408-1.391A1,1,0,0,0,11,5.29V4.062a8.161,8.161,0,0,1,2,0V5.29a1,1,0,0,0,.715.959A6.03,6.03,0,0,1,16.123,7.64a1,1,0,0,0,1.187.14l1.064-.615a8.056,8.056,0,0,1,1,1.731l-1.064.616A1,1,0,0,0,17.838,10.608ZM12,8a4,4,0,1,0,4,4A4,4,0,0,0,12,8Zm0,6a2,2,0,1,1,2-2A2,2,0,0,1,12,14Z"/>
  </g>
</svg>
