<svg id="ICON" xmlns="http://www.w3.org/2000/svg" viewBox="0 0 24 24">
  <defs>
    <style>
      .cls-1 {
        fill: #fff;
        opacity: 0;
      }

      .cls-2 {
        fill: #001b41;
      }
    </style>
  </defs>
  <g id="ic-s24-individual-social-media-youtube">
    <path id="content" class="cls-1" d="M21.582,7.155a2.515,2.515,0,0,0-1.768-1.78c-1.56-.42-7.814-.42-7.814-.42s-6.254,0-7.814.42a2.515,2.515,0,0,0-1.768,1.78A26.357,26.357,0,0,0,2,12a26.357,26.357,0,0,0,.418,4.845,2.515,2.515,0,0,0,1.768,1.78c1.56.42,7.814.42,7.814.42s6.254,0,7.814-.42a2.515,2.515,0,0,0,1.768-1.78A26.357,26.357,0,0,0,22,12,26.357,26.357,0,0,0,21.582,7.155Z"/>
    <path id="content-2" data-name="content" class="cls-2" d="M21.582,7.155a2.515,2.515,0,0,0-1.768-1.78c-1.56-.42-7.814-.42-7.814-.42s-6.254,0-7.814.42a2.515,2.515,0,0,0-1.768,1.78A26.357,26.357,0,0,0,2,12a26.357,26.357,0,0,0,.418,4.845,2.515,2.515,0,0,0,1.768,1.78c1.56.42,7.814.42,7.814.42s6.254,0,7.814-.42a2.515,2.515,0,0,0,1.768-1.78A26.357,26.357,0,0,0,22,12,26.357,26.357,0,0,0,21.582,7.155ZM9.955,14.974V9.026L15.182,12Z"/>
  </g>
</svg>
