<svg id="ICON" xmlns="http://www.w3.org/2000/svg" viewBox="0 0 24 24">
  <defs>
    <style>
      .cls-1 {
        fill: #001b41;
      }
    </style>
  </defs>
  <path id="ic-s24-regular-slider-horizontal" class="cls-1" d="M3,6A1,1,0,0,1,4,5H14a1,1,0,0,1,0,2H4A1,1,0,0,1,3,6Zm1,7H6v1a1,1,0,0,0,2,0V10a1,1,0,0,0-2,0v1H4a1,1,0,0,0,0,2Zm16-2H10a1,1,0,0,0,0,2H20a1,1,0,0,0,0-2ZM10,17H4a1,1,0,0,0,0,2h6a1,1,0,0,0,0-2Zm10,0H14V16a1,1,0,0,0-2,0v4a1,1,0,0,0,2,0V19h6a1,1,0,0,0,0-2ZM17,9a1,1,0,0,0,1-1V7h2a1,1,0,0,0,0-2H18V4a1,1,0,0,0-2,0V8A1,1,0,0,0,17,9Z"/>
</svg>
