<svg id="ICON" xmlns="http://www.w3.org/2000/svg" viewBox="0 0 24 24">
  <defs>
    <style>
      .cls-1 {
        fill: #fff;
        opacity: 0;
      }

    </style>
  </defs>
  <g id="ic-s24-regular-phone">
    <path id="background" class="cls-1" d="M7.069,21a4.228,4.228,0,0,1-2.962-1.665l-.261-.271c-1.007-1.006-1.116-2.773-.307-4.978A18.23,18.23,0,0,1,7.8,7.791C11.333,4.256,14.727,3,16.723,3a3.232,3.232,0,0,1,2.347.844l.273.263A4.135,4.135,0,0,1,21.005,7.18,3.69,3.69,0,0,1,19.4,9.887a4.855,4.855,0,0,1-2.963,1.323,3.324,3.324,0,0,1-2.37-1.137,12.569,12.569,0,0,0-2.151,1.833,11.542,11.542,0,0,0-1.826,2.163c1.329,1.413,1.749,2.9-.194,5.316A3.67,3.67,0,0,1,7.069,21Z" />
    <path id="content" class="cls-2" d="M7.069,21a4.228,4.228,0,0,1-2.962-1.665l-.261-.271c-1.007-1.006-1.116-2.773-.307-4.978A18.23,18.23,0,0,1,7.8,7.791C11.333,4.256,14.727,3,16.723,3a3.232,3.232,0,0,1,2.347.844l.273.263A4.135,4.135,0,0,1,21.005,7.18,3.69,3.69,0,0,1,19.4,9.887a4.855,4.855,0,0,1-2.963,1.323,3.324,3.324,0,0,1-2.37-1.137,12.569,12.569,0,0,0-2.151,1.833,11.542,11.542,0,0,0-1.826,2.163c1.329,1.413,1.749,2.9-.194,5.316A3.67,3.67,0,0,1,7.069,21ZM16.723,5C15.5,5,12.534,5.883,9.21,9.206a16.2,16.2,0,0,0-3.793,5.566c-.56,1.524-.474,2.559-.157,2.874l.246.254c.515.543,1.042,1.1,1.563,1.1.377,0,.8-.291,1.264-.866,1.343-1.668.956-2.048.109-2.882l-.167-.165c-.233-.234-.547-.772-.049-1.775A12.294,12.294,0,0,1,10.5,10.491c2.281-2.281,3.254-2.545,3.786-2.545a1.107,1.107,0,0,1,.806.322l.166.168c.473.481.782.774,1.177.774a3.24,3.24,0,0,0,1.71-.882A1.917,1.917,0,0,0,19.007,7.1c.022-.532-.543-1.069-1.042-1.543h0c-.107-.1-.21-.2-.308-.3A1.378,1.378,0,0,0,16.723,5Z" />
  </g>
</svg>