<svg id="ICON" xmlns="http://www.w3.org/2000/svg" viewBox="0 0 24 24">
  <defs>
    <style>
      .cls-1 {
        opacity: 0;
      }

      .cls-2 {
        fill: #fff;
      }

      .cls-3 {
        fill: #001b41;
      }
    </style>
  </defs>
  <g id="ic-s24-regular-circle-question-mark">
    <g id="background" class="cls-1">
      <path class="cls-2" d="M12,22A10,10,0,1,1,22,12,10,10,0,0,1,12,22Z"/>
    </g>
    <path id="content" class="cls-3" d="M12,2A10,10,0,1,0,22,12,10.011,10.011,0,0,0,12,2Zm0,18a8,8,0,1,1,8-8A8.009,8.009,0,0,1,12,20Zm3-10c0,1.424-1.77,3.212-2.312,3.726a1,1,0,0,1-1.376-1.452A6.384,6.384,0,0,0,13,10a1,1,0,0,0-2,0,1,1,0,0,1-2,0,3,3,0,0,1,6,0Zm-1.875,6A1.125,1.125,0,1,1,12,14.875,1.125,1.125,0,0,1,13.125,16Z"/>
  </g>
</svg>
