<svg id="ICON" xmlns="http://www.w3.org/2000/svg" viewBox="0 0 24 24">
  <defs>
    <style>
      .cls-1 {
        opacity: 0;
      }

      .cls-2 {
        fill: #fff;
      }

      .cls-3 {
        fill: #001b41;
      }
    </style>
  </defs>
  <g id="ic-s24-regular-globe">
    <g id="background" class="cls-1">
      <path class="cls-2" d="M12,22A10,10,0,1,1,22,12,10,10,0,0,1,12,22Z"/>
    </g>
    <path id="content" class="cls-3" d="M12,2A10,10,0,1,0,22,12,10.011,10.011,0,0,0,12,2Zm6.918,6H16.6a12.731,12.731,0,0,0-1.066-3.164A8.043,8.043,0,0,1,18.918,8ZM20,12a7.953,7.953,0,0,1-.263,2H16.9c.061-.646.1-1.308.1-2s-.043-1.354-.1-2h2.84A7.953,7.953,0,0,1,20,12Zm-8,8c-.843,0-1.949-1.481-2.555-4h5.11C13.949,18.519,12.843,20,12,20ZM9.108,14a18.573,18.573,0,0,1,0-4h5.784A18.8,18.8,0,0,1,15,12a18.8,18.8,0,0,1-.108,2ZM4,12a7.953,7.953,0,0,1,.263-2H7.1c-.06.646-.1,1.308-.1,2s.042,1.354.1,2H4.263A7.953,7.953,0,0,1,4,12Zm8-8c.843,0,1.949,1.481,2.555,4H9.445C10.051,5.481,11.157,4,12,4Zm-3.541.837A12.737,12.737,0,0,0,7.394,8H5.082A8.046,8.046,0,0,1,8.459,4.837ZM5.082,16H7.394a12.737,12.737,0,0,0,1.065,3.163A8.046,8.046,0,0,1,5.082,16Zm10.456,3.164A12.732,12.732,0,0,0,16.6,16h2.317A8.043,8.043,0,0,1,15.538,19.164Z"/>
  </g>
</svg>
