<svg id="ICON" xmlns="http://www.w3.org/2000/svg" viewBox="0 0 24 24">
  <defs>
    <style>
      .cls-1 {
        fill: #fff;
        opacity: 0;
      }

      .cls-2 {
        fill: #001b41;
      }
    </style>
  </defs>
  <g id="ic-s24-individual-social-media-instagram">
    <path id="background" class="cls-1" d="M12,3c-2.444,0-2.751.01-3.711.054a6.62,6.62,0,0,0-2.184.418A4.613,4.613,0,0,0,3.472,6.105a6.62,6.62,0,0,0-.418,2.184C3.01,9.249,3,9.556,3,12s.01,2.751.054,3.711A6.62,6.62,0,0,0,3.472,17.9a4.613,4.613,0,0,0,2.633,2.633,6.62,6.62,0,0,0,2.184.418C9.249,20.99,9.556,21,12,21s2.751-.01,3.711-.054a6.62,6.62,0,0,0,2.184-.418A4.613,4.613,0,0,0,20.528,17.9a6.62,6.62,0,0,0,.418-2.184C20.99,14.751,21,14.444,21,12s-.01-2.751-.054-3.711a6.62,6.62,0,0,0-.418-2.184A4.613,4.613,0,0,0,17.9,3.472a6.62,6.62,0,0,0-2.184-.418C14.751,3.01,14.444,3,12,3Z"/>
    <path id="content" class="cls-2" d="M12,4.622c2.4,0,2.688.009,3.637.052a4.985,4.985,0,0,1,1.671.31,2.977,2.977,0,0,1,1.708,1.708,4.985,4.985,0,0,1,.31,1.671c.043.949.052,1.234.052,3.637s-.009,2.688-.052,3.637a4.985,4.985,0,0,1-.31,1.671,2.977,2.977,0,0,1-1.708,1.708,4.985,4.985,0,0,1-1.671.31c-.949.043-1.234.052-3.637.052s-2.688-.009-3.637-.052a4.985,4.985,0,0,1-1.671-.31,2.977,2.977,0,0,1-1.708-1.708,4.985,4.985,0,0,1-.31-1.671C4.631,14.688,4.622,14.4,4.622,12s.009-2.688.052-3.637a4.985,4.985,0,0,1,.31-1.671A2.977,2.977,0,0,1,6.692,4.984a4.985,4.985,0,0,1,1.671-.31C9.312,4.631,9.6,4.622,12,4.622M12,3c-2.444,0-2.751.01-3.711.054a6.62,6.62,0,0,0-2.184.418A4.613,4.613,0,0,0,3.472,6.105a6.62,6.62,0,0,0-.418,2.184C3.01,9.249,3,9.556,3,12s.01,2.751.054,3.711A6.62,6.62,0,0,0,3.472,17.9a4.613,4.613,0,0,0,2.633,2.633,6.62,6.62,0,0,0,2.184.418C9.249,20.99,9.556,21,12,21s2.751-.01,3.711-.054a6.62,6.62,0,0,0,2.184-.418A4.613,4.613,0,0,0,20.528,17.9a6.62,6.62,0,0,0,.418-2.184C20.99,14.751,21,14.444,21,12s-.01-2.751-.054-3.711a6.62,6.62,0,0,0-.418-2.184A4.613,4.613,0,0,0,17.9,3.472a6.62,6.62,0,0,0-2.184-.418C14.751,3.01,14.444,3,12,3Zm0,4.378A4.622,4.622,0,1,0,16.622,12,4.623,4.623,0,0,0,12,7.378ZM12,15a3,3,0,1,1,3-3A3,3,0,0,1,12,15Zm4.8-8.884a1.08,1.08,0,1,0,1.08,1.08A1.08,1.08,0,0,0,16.8,6.116Z"/>
  </g>
</svg>
