<svg id="ICON" xmlns="http://www.w3.org/2000/svg" viewBox="0 0 24 24">
  <defs>
    <style>
      .cls-1 {
        opacity: 0;
      }

      .cls-2 {
        fill: #fff;
      }

      .cls-3 {
        fill: #001b41;
      }
    </style>
  </defs>
  <g id="ic-s24-regular-circle-plus">
    <g id="background" class="cls-1">
      <path class="cls-2" d="M12,22A10,10,0,1,1,22,12,10,10,0,0,1,12,22Z"/>
    </g>
    <path id="content" class="cls-3" d="M12,2A10,10,0,1,0,22,12,10.011,10.011,0,0,0,12,2Zm0,18a8,8,0,1,1,8-8A8.009,8.009,0,0,1,12,20Zm5-8a1,1,0,0,1-1,1H13v3a1,1,0,0,1-2,0V13H8a1,1,0,0,1,0-2h3V8a1,1,0,0,1,2,0v3h3A1,1,0,0,1,17,12Z"/>
  </g>
</svg>
