<svg id="ICON" xmlns="http://www.w3.org/2000/svg" viewBox="0 0 24 24">
  <defs>
    <style>
      .cls-1 {
        opacity: 0;
      }

      .cls-2 {
        fill: #fff;
      }

      .cls-3 {
        fill: #001b41;
      }
    </style>
  </defs>
  <g id="ic-s24-regular-circle-check-mark">
    <g id="background" class="cls-1">
      <path class="cls-2" d="M12,22A10,10,0,1,1,22,12,10,10,0,0,1,12,22Z"/>
    </g>
    <path id="content" class="cls-3" d="M12,2A10,10,0,1,0,22,12,10.011,10.011,0,0,0,12,2Zm0,18a8,8,0,1,1,8-8A8.009,8.009,0,0,1,12,20ZM15.625,8.719a1,1,0,0,1,.156,1.406l-4,5a1,1,0,0,1-.726.374H11a1,1,0,0,1-.707-.293l-2-2a1,1,0,0,1,1.414-1.414L10.917,13l3.3-4.128A1,1,0,0,1,15.625,8.719Z"/>
  </g>
</svg>
