<svg id="ICON" xmlns="http://www.w3.org/2000/svg" viewBox="0 0 24 24">
    <defs>
        <style>
            .cls-1 {
                opacity: 0;
            }

            .cls-2 {
                fill: #fff;
                stroke: transparent;
            }

            .cls-3 {
                stroke: transparent;
                fill: #001b41;
            }
        </style>
    </defs>
    <g id="ic-s24-regular-circle-x">
        <g id="background" class="cls-2">
            <path class="cls-2" d="M12,22A10,10,0,1,1,22,12,10,10,0,0,1,12,22Z" />
        </g>
        <path id="content" class="cls-3"
            d="M12,2A10,10,0,1,0,22,12,10.011,10.011,0,0,0,12,2Zm0,18a8,8,0,1,1,8-8A8.009,8.009,0,0,1,12,20ZM15.707,9.707,13.414,12l2.293,2.293a1,1,0,1,1-1.414,1.414L12,13.414,9.707,15.707a1,1,0,0,1-1.414-1.414L10.586,12,8.293,9.707A1,1,0,0,1,9.707,8.293L12,10.586l2.293-2.293a1,1,0,0,1,1.414,1.414Z" />
    </g>
</svg>