<svg id="ICON" xmlns="http://www.w3.org/2000/svg" viewBox="0 0 32 32">
    <title>Zeichenfläche 10</title>
    <path id="world"
        d="M16,0A16,16,0,1,0,32,16,16,16,0,0,0,16,0ZM28.47,22.33a15.78,15.78,0,0,0-3.81-1.91A28.5,28.5,0,0,0,25,16a28.5,28.5,0,0,0-.34-4.42,15.78,15.78,0,0,0,3.81-1.91,13.86,13.86,0,0,1,0,12.66ZM9,16a26.45,26.45,0,0,1,.28-3.83A26.66,26.66,0,0,0,15,13V19a26.66,26.66,0,0,0-5.72.8A26.45,26.45,0,0,1,9,16ZM17,2.17c2.35.7,4.35,3.83,5.34,8A25,25,0,0,1,17,11Zm-2,0V11a25,25,0,0,1-5.34-.77C10.65,6,12.65,2.87,15,2.17ZM15,21v8.8c-2.35-.7-4.35-3.83-5.34-8A25,25,0,0,1,15,21Zm2,8.8V21a25,25,0,0,1,5.34.77C21.35,26,19.35,29.13,17,29.83ZM17,19V13a26.66,26.66,0,0,0,5.72-.8A26.45,26.45,0,0,1,23,16a26.45,26.45,0,0,1-.28,3.83A26.66,26.66,0,0,0,17,19ZM27.44,8A13.88,13.88,0,0,1,24.27,9.6a17.28,17.28,0,0,0-2.92-6.53A14.09,14.09,0,0,1,27.44,8ZM10.65,3.07A17.28,17.28,0,0,0,7.73,9.6,13.88,13.88,0,0,1,4.56,8,14.09,14.09,0,0,1,10.65,3.07ZM3.53,9.67a15.78,15.78,0,0,0,3.81,1.91,28.9,28.9,0,0,0,0,8.84,15.78,15.78,0,0,0-3.81,1.91,13.86,13.86,0,0,1,0-12.66Zm1,14.38A13.88,13.88,0,0,1,7.73,22.4a17.35,17.35,0,0,0,2.92,6.53A14.09,14.09,0,0,1,4.56,24.05Zm16.79,4.88a17.28,17.28,0,0,0,2.92-6.53,13.88,13.88,0,0,1,3.17,1.65A14.09,14.09,0,0,1,21.35,28.93Z" />
</svg>