<svg id="flags" xmlns="http://www.w3.org/2000/svg" viewBox="0 0 900 600"><g id="canada"><rect width="900" height="600" style="fill:#fff"/><path d="M449.992,89.062l-34.113,63.626c-3.871,6.914-10.806,6.273-17.741,2.411l-24.7-12.789,18.408,97.727c3.871,17.855-8.549,17.855-14.678,10.135l-43.1-48.251-7,24.5c-.806,3.218-4.354,6.6-9.677,5.793l-54.5-11.46L277.207,272.8c3.064,11.581,5.455,16.376-3.094,19.429l-19.426,9.131,93.822,76.208a12.28,12.28,0,0,1,4.267,12.762l-8.212,26.947c32.305-3.723,61.25-9.326,93.571-12.776,2.852-.305,7.63,4.4,7.61,7.711l-4.28,98.724h15.706L454.7,412.426c-.019-3.307,4.315-8.228,7.167-7.923,32.32,3.45,61.266,9.053,93.57,12.776l-8.211-26.947a12.28,12.28,0,0,1,4.267-12.762l93.821-76.208-19.425-9.131c-8.549-3.053-6.159-7.848-3.094-19.429l14.314-52.045-54.5,11.46c-5.323.8-8.871-2.575-9.677-5.793l-7-24.5-43.1,48.251c-6.129,7.72-18.549,7.72-14.678-10.135L526.56,142.31l-24.7,12.789c-6.935,3.862-13.87,4.5-17.741-2.411ZM200,600H0V0H200Zm700,0H700V0H900Z" style="fill:red"/></g></svg>