<svg id="flags" xmlns="http://www.w3.org/2000/svg" viewBox="0 0 900 600"><g id="united-kingdom"><rect width="900" height="600" style="fill:#fff"/><path d="M199.044,400,0,532.7V400ZM100.956,600H375V417.3Z" style="fill:#00247d"/><path d="M799.045,0,525,182.7V0Zm-98.09,200H900V67.3Z" style="fill:#00247d"/><path d="M900,400V532.7L700.955,400ZM525,417.3V600H799.045Z" style="fill:#00247d"/><path d="M375,0V182.7L100.955,0ZM0,67.3V200H199.045Z" style="fill:#00247d"/><polygon points="300 400 0 600 66 600 366 400 300 400" style="fill:#cf142b"/><polygon points="600 200 900 0 834 0 534 200 600 200" style="fill:#cf142b"/><polygon points="234 200 300 200 0 0 0 44 234 200" style="fill:#cf142b"/><polygon points="666 400 600 400 900 600 900 556 666 400" style="fill:#cf142b"/><rect y="240" width="900" height="120" style="fill:#cf142b"/><rect x="405" width="90" height="600" style="fill:#cf142b"/></g></svg>